<?xml version="1.0" encoding="UTF-8"?>
<!DOCTYPE svg PUBLIC "-//W3C//DTD SVG 1.1//EN" "http://www.w3.org/Graphics/SVG/1.1/DTD/svg11.dtd">
<!-- Creator: CorelDRAW 2020 (64-Bit) -->
<svg xmlns="http://www.w3.org/2000/svg" xml:space="preserve" width="500px" height="500px" version="1.1" style="shape-rendering:geometricPrecision; text-rendering:geometricPrecision; image-rendering:optimizeQuality; fill-rule:evenodd; clip-rule:evenodd"
viewBox="0 0 500 500"
 xmlns:xlink="http://www.w3.org/1999/xlink"
 xmlns:xodm="http://www.corel.com/coreldraw/odm/2003">
 <defs>
  <style type="text/css">
   <![CDATA[
    .str0 {stroke:#373435;stroke-width:7.43;stroke-miterlimit:22.9256}
    .fil21 {fill:#0D150A}
    .fil20 {fill:#1A2617}
    .fil1 {fill:#222121}
    .fil15 {fill:#232314}
    .fil3 {fill:#232B1D}
    .fil12 {fill:#252B23}
    .fil24 {fill:#262508}
    .fil19 {fill:#2A3325}
    .fil25 {fill:#2B231D}
    .fil10 {fill:#2B2423}
    .fil17 {fill:#2B2A18}
    .fil28 {fill:#333B2D}
    .fil26 {fill:#352A27}
    .fil31 {fill:#363519}
    .fil30 {fill:#433321}
    .fil8 {fill:#4B403F}
    .fil37 {fill:#5B6659}
    .fil38 {fill:#646463}
    .fil40 {fill:#656C61}
    .fil23 {fill:#686856}
    .fil2 {fill:#72715D}
    .fil29 {fill:#72725A}
    .fil34 {fill:#746759}
    .fil36 {fill:#787976}
    .fil43 {fill:#797867}
    .fil6 {fill:#7A8875}
    .fil5 {fill:#7D8A72}
    .fil4 {fill:#7D8A75}
    .fil41 {fill:#808381}
    .fil32 {fill:#888986}
    .fil39 {fill:#92988B}
    .fil33 {fill:#968B89}
    .fil42 {fill:#989997}
    .fil27 {fill:#9DA19C}
    .fil35 {fill:#A3A4A3}
    .fil44 {fill:#AAABA9}
    .fil9 {fill:#B5B383}
    .fil18 {fill:#B88A8A}
    .fil11 {fill:#B9B583}
    .fil22 {fill:#D9CBC4}
    .fil0 {fill:#DE799B}
    .fil14 {fill:#E4CBC3}
    .fil7 {fill:#E6C8BD}
    .fil16 {fill:#EFEFEF}
    .fil13 {fill:#F1F1EE}
   ]]>
  </style>
 </defs>
 <g id="Capa_x0020_1">
  <metadata id="CorelCorpID_0Corel-Layer"/>
  <rect class="fil0 str0" x="108.38" y="111.22" width="291.5" height="288.65"/>
  <g id="_2232533058944">
   <path class="fil1" d="M242.64 218.21c1.74,-4.42 9.36,-8.29 14.4,-10.28l4.55 9.36c-17.46,1.41 -13.65,6.47 -18.95,0.92zm93.27 31.44c-2.37,1.79 3.58,3.52 -3.11,1.22l0 -6.5c-2.33,-16.91 -12.17,-27.63 -14.8,-40.3 9.44,7.48 24.61,23.37 25.7,35.72l-7.79 9.86zm-82.09 -75.01l-0.03 -17c5.75,3.31 5.2,7.41 5.15,13.92 3.21,3.36 3.19,14.33 3.95,19.75 1.36,5.8 0.08,5.5 -3.58,9.4 -3.83,0.79 -1.2,1.01 -1.68,-2.39 -3.08,-2.33 -3.69,-18.95 -3.81,-23.68zm30.28 13.01l-7.79 3.53c-0.84,-15.2 -5.82,-31.42 2.56,-38.86l7.93 -2.31c6.33,7.94 7.25,10.07 5.28,20.89 -0.6,3.3 -1.77,6.43 -2.91,9.64 -3.35,9.48 -3.45,6.44 -5.07,7.11zm-82.01 -42.43c2.26,5.89 4.05,1.95 7.17,9.47 10.24,2.87 13.46,3.01 24.2,0.09l-0.45 -4.77c-2.25,-3.54 -2.05,-2.94 -0.86,-5.73l3.33 5.04 12.76 7.5c3.61,2.85 2.45,1.8 2.47,8.34 0,3.33 -0.22,6.79 -0.22,10.05 0,6.59 1.21,13.24 1.88,19.83l1.54 10.04c-9.41,5.94 -16.54,10.46 -28.38,9.58 -8.72,-0.66 -20.16,-5.27 -22.14,-14 -5.61,-4.87 -8.18,-15.27 -11.18,-22.74 -2.55,-15.53 -3.18,-17.71 -3.17,-33.97l2.22 -4.42c0.18,0.28 0.47,0.63 0.55,0.84l1 7.79 3.17 8.07 8.75 0.08c-0.24,-2.99 -2.56,-5.53 -4.45,-9.77 -2.23,-2.18 -1.28,2.85 -1.97,-2.81 7.24,-0.78 1.41,-0.58 3.78,1.49l0 0zm-56.46 59.1c-4.82,12.36 -7.71,13.89 -7.28,28.7l3.96 3.52 -0.95 -4.71c1.77,-30.11 24.24,-33.39 23.76,-44.48 -0.48,-10.83 -4.54,-19.26 -3.08,-31.62 1.42,-11.97 4.77,-14.85 9.1,-24.55 1.99,-2.01 -2.66,-2.76 2.83,-1.35l-1.53 2.83c-2.54,14.29 -4.48,29.95 -1.22,44.09 9.19,39.74 -40.68,46.19 -14.18,86.8 3.83,5.86 8.99,6.56 15.46,7.44l-0.39 3.2 3.75 1.2 -0.06 1.12c-0.29,-14.71 22.44,-26.04 33.34,-17.99 -1.34,5.06 -11.15,9.61 -13.82,19.12 -2.07,7.3 -1.39,21.53 5.71,25.15l0.99 -0.67c-0.84,-9.3 -9.41,-14.92 -0.86,-28.33 7.36,-11.55 12.33,-12.93 25.9,-11.3 6.84,6.76 4.98,7.55 7.27,16.2l2.59 -0.14c-0.39,-19.57 -6.68,-18.68 -22.54,-20.93 0.29,-6.97 11.57,-13.11 16.58,-18.04l6.34 2.52 -5.23 -13.54c6.36,0 3.76,-1.82 6.79,4.47 1.77,3.68 1.68,4.39 4.93,6.21 2.24,-5 -1.86,-6.59 -4.01,-12.84l7.02 -1.32c3.12,5.5 3.67,8.56 9.12,10.53 -0.96,-5.98 -2.76,-6.58 -4.98,-12.25l4.34 -1.84c5.13,2.88 4.49,9.16 9.96,12.21 1.83,-3.57 -1.95,-9.4 -4.59,-13.09l7.53 -1.06c2.93,10.49 4.57,6.8 -6.1,28.03 -3.29,6.54 -12.27,20.65 -9.65,26.18 5.88,3.47 13.45,1.26 19.94,-1.98 2.27,3.57 0.95,1.19 2.07,7.08 29.84,-0.23 25.17,-21.65 28.17,-29.22 5.88,0.7 26.98,14.68 29.14,21.43 -4.61,8.28 -14.42,15.01 -15.43,24.55 6.18,-3.02 13.77,-17.47 19.11,-22.88 14.92,18.18 -5.62,43.95 4.86,70.17 3.3,8.3 10.68,8.96 16.89,12.06 0.08,6.55 -1.53,12.91 -4.79,17.71 -10.05,-2.46 -24.39,-14.48 -31.36,-15.19 -3.65,7.11 -3.81,27.57 -4.02,36.42 -11.66,1.47 -21.29,1.74 -33.1,1.74 -10.83,0 -21.86,-2.61 -31.4,-0.71 -2.81,1.31 3.19,2.48 -5.2,0.37l3.44 1.9c20.96,3.08 44.71,0.87 65.74,0.52 0.2,23.87 -1.03,44.45 29.58,42.91 3.88,-8.18 6.03,-5.7 6.15,-18.49l-3.43 0.28c-0.4,7.98 -0.96,10.1 -6.4,14.99 -17.26,0.34 -21.63,-11.84 -22.52,-26.79 -0.66,-11.15 0.86,-37.36 3.33,-48.2 10.3,3.4 26.17,13.5 35.13,20.7 5.78,4.64 10.17,11.37 10.38,18.88 0.36,13.56 -5.7,11.59 -13.85,15.69l6.98 0.9c10.52,-0.92 11.48,-14.36 9.57,-22.85 -2.19,-9.72 -9.02,-13.24 -14.98,-19.42 1.36,-8.77 3.84,-12.65 4.53,-22.89 4.89,-1.09 9.5,-3.08 12.46,-6.77l0.74 -4.57 -4.65 2.59c-4.46,8.9 -41.96,16.5 -24.71,-53.07 1.97,-7.96 7.43,-17.35 8.37,-23.53l-2.02 -0.24 -6.68 12.31 -13.1 -18.1c4.47,-18.46 32.85,-16.08 1.07,-48.31 -2.01,-2.05 -18.65,-20.71 -18.83,-21.12 -5.68,-12.58 10.66,-25.7 -10.03,-67.06 -12.34,-24.65 -51.58,-44.17 -79.51,-37.14 -17.23,-2.68 -50.62,31.31 -59.11,46.28 -12.02,21.17 -4.08,34.34 -3.51,54.95l-15.82 14.63 0 0z"/>
   <g>
    <path class="fil2" d="M234.33 278.69l-0.13 3.94c11.66,-9.79 34.11,-2.85 28.72,14.28 -2.44,7.74 -8.57,9.98 -13.53,13.51 -3.43,2.43 -12.76,10.33 -14.51,10.86 4.65,12.21 9.19,0.13 10.34,23.91 13.32,-0.43 5.09,-2.23 14.04,-7.73 3.66,-2.25 12.58,-3.04 17.23,-3.99 26.34,-5.33 20.01,-11.04 29.69,-14.37 -1.36,11.56 -14.47,14.48 -24.37,16.89 -13.94,3.4 -19.95,0.37 -26.8,12.62l-22.9 0.69 -2.2 8.7c7.61,-0.99 11.96,-1.5 17.74,2.57 -3.92,2.78 5.34,2.85 -6.04,1.49 -1.31,-0.15 -1.71,-0.98 -4.83,-1.1 -3.43,-0.13 -5.37,0.95 -8.52,2.57l0.52 6.87c5.3,0.65 9.72,0.03 13.48,3.11 -4.22,3.59 -6.51,1.16 -13.04,0.68 1.24,11.1 0,7.9 6.55,10.43 3.65,1.42 2.34,-0.04 3.76,3.15 -3.87,1.41 -4.73,-0.08 -9.97,-0.23l1.37 6.84 21.58 0.59c9.54,-1.9 20.56,0.72 31.4,0.72 11.81,0 21.44,-0.28 33.1,-1.75 0.21,-8.85 0.37,-29.31 4.02,-36.42 6.96,0.71 21.31,12.73 31.36,15.19 3.26,-4.8 4.87,-11.16 4.78,-17.71 -6.2,-3.1 -13.58,-3.76 -16.88,-12.06 -10.48,-26.22 10.06,-51.99 -4.86,-70.17 -5.34,5.41 -12.93,19.86 -19.11,22.88 1.01,-9.54 10.82,-16.27 15.43,-24.55 -2.16,-6.75 -23.26,-20.72 -29.14,-21.43 -3,7.57 1.67,28.99 -28.17,29.23 -1.12,-5.9 0.2,-3.51 -2.07,-7.09 -6.49,3.24 -14.06,5.45 -19.94,1.98 -2.62,-5.53 6.36,-19.64 9.65,-26.18 10.66,-21.23 9.03,-17.54 6.09,-28.02l-7.52 1.05c2.64,3.69 6.42,9.52 4.59,13.09 -5.48,-3.05 -4.83,-9.33 -9.96,-12.2l-4.34 1.83c2.22,5.67 4.02,6.27 4.98,12.25 -5.45,-1.97 -6,-5.03 -9.12,-10.53l-7.02 1.32c2.14,6.25 6.25,7.84 4,12.84 -3.25,-1.82 -3.15,-2.53 -4.92,-6.21 -3.03,-6.29 -0.43,-4.47 -6.79,-4.47l5.23 13.54 -6.35 -2.51c-5.01,4.92 -16.28,11.06 -16.57,18.03 15.86,2.25 22.15,1.36 22.53,20.93l-2.58 0.14 0 0z"/>
    <path class="fil3" d="M89.72 395.74c-16.78,4.03 -18.56,-13.2 -13.06,-23.99 1.29,-2.55 16.46,-20.37 18.94,-22.62 4.75,5.02 17.85,25.72 11.46,38.63 -3.01,6.07 -3.71,7.6 -11.23,6.3l-0.63 -17.27c-7.93,2.45 0.3,8.48 -5.48,18.95zm62.46 -19.35c-4.28,2 -17.8,10.06 -20.88,9.87 -8.88,-0.54 -11.08,-12.05 -9.58,-19.06 2.33,-10.81 10.02,-35.13 14.73,-45.35 10.94,5.1 4.09,4.77 17.03,15.99l-1.3 38.55 0 0zm3.88 -42.06c-3.18,-3.34 -2.8,-0.95 -0.24,-7.58l4.06 -7.65 6.69 3.06c-2.5,4.09 -3.4,2.52 -6.21,6.25 -2.89,3.82 0.67,2.16 -4.3,5.92zm-102.03 -5.8l-0.66 5.16 -2.11 -3.43 -4.53 -9.48 6.72 0.77c0.4,1.12 0.44,-0.44 0.85,3.4 0.06,0.53 -0.2,2.85 -0.27,3.58l0 0zm18.55 41.67c-8.46,-2.03 -9.45,-3.75 -12.87,-12.27 -5.52,-13.76 -1.17,-54.31 4.65,-65.12 3.1,2.11 8.73,4.83 12.43,6.72 22.51,11.44 -4,27.71 27.9,33.2 3.51,5.39 7.05,11.35 7.48,18.35l-6.59 4.36c-4.08,-3.28 -1.92,-1.9 -4.48,-5.99 -2.28,-3.65 -2.76,-3.54 -5.61,-5.45l-7.11 3.99c-5.83,-6.36 -11.02,-21.94 -13.43,-30.97 -1.54,-5.76 -0.33,-7.06 -5.04,-9.29 -3.63,11.38 15.2,41.36 16.93,45.73l-14.26 16.74 0 0zm-49.74 -38.94c-9.9,-7.38 -9.39,-13.76 -9.24,-26.23 0.06,-5.58 1.78,-26.86 3.29,-31.6 4.01,-1.02 49.99,12.51 37.28,43.91l-9.93 -0.65c-4.8,-5.94 -2.05,-6.41 -9.05,-8.05 1.82,6.57 3.83,5.63 4.83,12.15 -3.39,7.19 -9.23,10.34 -17.18,10.47l0 0zm91.15 -5.18c-11.13,2.41 -21.86,5.19 -23.14,-9.88 -0.94,-11.1 1.43,-18.1 8.13,-26.32 5.74,-7.01 28.15,-35.8 33.71,-39.71 5.55,6.04 10.3,20.76 11.73,29.18 -0.01,0.01 -15.91,28.74 10.61,39.56l-4.82 10.01c-18.8,-21.96 -16.35,-6.65 -23.31,5.65 -11.14,-5.38 -5.22,-12.95 -9.98,-18.29 -3.91,4.13 -1.65,4.12 -2.93,9.8l0 0zm-68.33 -56.85c-9.47,-9.61 -2.26,-36.33 3.01,-47.65 8.58,5.29 11.86,5.55 18.83,14.59 3.21,4.16 9.61,19.53 9.17,24.05 -9.69,2.57 -5.88,-1.98 -13.89,-3.53 -6.43,6.23 -5.26,12.49 -17.12,12.54l0 0zm57.51 -7.98l7.81 6.69c-2.78,5.15 -9,11.6 -12.95,16.72 -4.33,5.63 -7.92,14.01 -10.99,17.55 -7.38,-3.88 -10.96,-7.29 -13.14,-15.19 -1.96,-7.12 -5.17,-13.67 -6.85,-20.32l-1.27 -4.43c4.56,0.65 1.23,-0.25 2.51,2.05 5.49,1.76 8.88,1.39 12.69,-3.06 4.53,3.42 12.07,3.62 17.71,2.4 0.62,-3.65 0.69,-2.22 -0.18,-3.69 -44.3,4.35 -7.48,-61.32 1.84,-65.16l17.32 32.51c6.98,15.68 7.95,23.26 -2.1,37 -15.22,-3.13 -8.8,-24.63 -17,-32.43 -1.94,2.99 -1.5,-3.48 -1.58,4.36l2.75 10.52c1.35,4.91 2.38,9.48 3.43,14.48l0 0zm12.78 -66.43c-2.27,-13.69 8.61,-21.91 20.51,-24.75 1.26,10.92 9.75,24.38 1.93,33.14 -5.71,0.13 -5.88,-0.8 -8.56,-5.63 -5.63,-0.79 -10.16,-0.61 -13.88,-2.76zm2.73 22.77c-1.64,2.5 3.03,3.19 -2,2.02l-0.82 -3.76c-2.33,-7.76 -10.06,-22.05 -17.66,-25.01 -10.96,5.87 -21.09,33.4 -24.02,45.47l-1.09 2.01 -2.67 -3.09c-2.72,-7.44 -14.78,-16.91 -23.33,-17.56 -12.17,12.75 -19.28,78.68 14.81,47.97l9.18 25.16 -8.34 -4.44 -2.57 5.87 -1.96 2.92 -1.37 -1.9c-8.54,-7.35 -10.37,-13.1 -22.11,-18.11l-5.5 -2.92 -11.87 -4.98 -4.5 3.87 0 56.97c5.95,4.35 7.39,9.07 16.56,6.52 6.23,-1.73 9.51,-8 14.66,-9.18 11.16,16.89 7.95,19.08 9.99,28.34 3.25,14.65 8.82,14.23 16.99,21.56 -3.93,28.75 11.17,24.07 20.6,24.7 0.39,5.65 -0.55,11.07 2.51,14.54 3.42,-4.03 1.91,-9.92 1.4,-15.71 4.82,-0.29 12.11,0.32 16.46,-11.71 3.35,-9.25 -0.92,-15.86 -3.69,-24.01 -1.79,-2.95 -2.21,3.91 -1.52,-4.11l3.64 -1.24 5.56 -5.42c0.8,-9.38 -2.6,-10.4 -5.75,-18.68 -1.84,-2.02 -1.8,2.57 -1.51,-2.52l3.3 -1.14 4.83 -0.73 7.34 7.97 2.72 2.3 -1.81 3.14 -0.66 1.98 -3.1 7.36c-5.08,23.74 -9.2,19.68 6.01,37.9 -7.91,9.86 -12.33,11.59 -8.94,26.85l2.76 6.08c6.72,4.81 14.81,6.2 18.7,-0.88 -7.42,-0.55 -6.3,1.82 -14.36,-0.48 -7.89,-10.86 -3.32,-24.24 7.25,-30.68 5.3,-3.22 27.5,-14.25 32.6,-15.76 5.28,6.95 5.63,23.27 5.28,32.7 -0.45,11.99 -0.7,24.04 -15.17,24.74 -2.4,-2.01 -1.32,-1.28 -3.02,-3.15 -2.72,-2.96 -0.98,-2.14 -4.84,-3.71 0.07,6.42 1.85,6.9 6.39,10.55 18.14,1.14 18.32,-12.43 20.78,-25.54 17.88,-3.97 18.53,8.56 67.85,-5.5 -0.36,-0.37 -0.69,-0.88 -0.94,-1.23 -0.22,-0.29 -0.62,-0.41 -0.78,-1.11 -0.15,-0.59 -0.39,-0.69 -0.63,-0.99 -15.54,5.75 -49.89,9.8 -65.51,3.4 -1.88,-16.22 0.85,-45.54 -18.58,-29.84 -1.69,-7.95 -0.08,-16.73 0.15,-24.81 0.3,-10.8 0.83,-9.34 6.4,-19.86l10.97 -8.08c-6.01,-9.54 -22.38,-3.19 -27.5,-15.46 -5.23,-12.5 -3.26,-23.44 7.83,-30.98 14.07,0 24.05,3.26 24.82,19.24 4.56,-1.31 1.64,1.35 4.28,-2.26l-7.38 -16.66 0.06 -1.13 -3.75 -1.2c-4.28,0.21 -9.16,-0.88 -13.75,-1.1 -8.21,-0.42 -4.1,0.36 -11.17,2.19 -2.39,-8.62 -6.01,-29.35 -16.22,-30.16l-3.54 4.03 -0.74 -5.5 -4.13 -14.55c-2.66,-3.93 -3.95,-4.72 -0.62,-8.07 0.58,-6.96 3.83,-10.06 5.91,-16.59 8.96,2.9 8.52,5.74 16.75,-0.94 0.38,-12.81 1.28,-19.7 -5.89,-37.1 -8.47,-0.36 -12.69,3.14 -19.37,8.36 -9.84,7.68 -12.86,21.87 0.62,26.05 4.79,1.5 -2.2,-1 2.44,0.72l2.16 1.11c-2.3,5.07 -5.29,9.35 -5.88,14.95l0 0z"/>
    <path class="fil4" d="M401.04 334.94c3.11,4.01 3.53,27.44 1.13,32.02 -3.52,-2.92 -2.49,-18.29 -2.55,-25.51 -0.05,-6.33 -0.89,-2.75 1.42,-6.51l0 0zm-5.27 -100.46c2.92,0.2 0.76,-0.62 1.79,0.7 -41.94,59.08 -9.97,35.75 -0.41,79.83 -7.49,17.1 -26.89,45.08 -16.3,64.16l12.87 0.26c4.62,-2.31 1.24,-1.18 7.1,-1.82 -0.3,-0.35 -0.81,-1.32 -0.96,-1.04 -1.45,2.67 -2.75,-4.09 -3,-5.95 3.87,0.94 20.88,21.93 28.83,10.86 5.19,-11.74 -0.92,-34.44 -7.84,-44.83 -3.26,-4.88 -5.07,-13.05 -8.22,-18.95 -4.11,-7.72 -10.64,-10.45 -12.37,-17.68 3.37,1.35 4.86,1.17 5.61,4.05 1.02,-11.7 -2.58,-28.19 -2.42,-30.49 0.5,-7.13 0.25,-2.53 1.86,-4.86 5.02,9.13 3.52,28.58 5.34,39.88 6.05,7.68 19.54,12.43 24.33,1.76 5.48,-12.19 -19.68,-63.01 -26.11,-70.25 -3.74,-4.23 -5.9,-7.72 -5.57,-13.35 -2.41,2.6 -2.63,3.93 -4.53,7.72l0 0z"/>
    <path class="fil3" d="M446.85 345.45c-1.29,-1.83 2.23,-3.16 -3.03,-0.49l-3.99 2.29c-7.96,-2.47 -4.53,-2.77 -10.31,-7.46 -0.07,-30.15 47.06,-42.64 50.03,-42.23 2.92,19.2 1.52,38.88 -3.42,57.22 -5.3,19.71 -26.73,17.03 -33.24,-4.12l3.96 -5.21 0 0zm-41.25 -137.92l-1.54 -3.11c-4.86,2.27 -2.16,2.02 -7.08,1.5l-3.36 -4.89c1.02,-9.91 9.9,-14.37 13.27,-23.76 6.66,2.99 7.3,7.46 10.55,14.25 3.85,8.05 6.19,7.91 5.14,18.35l-7.9 2.07 -6.96 -5.1 -2.95 24.14c-3.11,-3.32 -0.87,-2.67 -4.47,-4.22 -0.33,5.62 1.83,9.12 5.57,13.35 6.43,7.24 31.59,58.06 26.11,70.25 -4.79,10.67 -18.28,5.92 -24.33,-1.76 -1.82,-11.3 -0.32,-30.75 -5.34,-39.88 -1.61,2.33 -1.37,-2.27 -1.86,4.86 -0.17,2.3 3.44,18.79 2.42,30.49 -0.75,-2.88 -2.24,-2.7 -5.61,-4.05 1.73,7.23 8.26,9.96 12.37,17.68 3.15,5.9 4.96,14.06 8.22,18.95 6.92,10.39 13.03,33.09 7.84,44.83 -7.95,11.07 -24.97,-9.92 -28.83,-10.86 0.25,1.86 1.55,8.62 3,5.95 0.15,-0.28 0.66,0.69 0.96,1.04 0.9,2.89 0.59,1.78 4.2,4.57 25.3,19.51 27.24,-12.76 27.34,-12.98 1.63,-3.45 5.36,-10.26 7.54,-13.72 4.69,6.69 7.6,14.61 17.99,15.79 11.38,1.31 18.65,-4.34 21.61,-14.65 3.84,-13.36 8.48,-50.65 2.42,-62.68 -10.03,-2.61 -20.25,8.09 -30.09,8.8l-3.25 -0.38c-0.04,-0.59 0.35,-0.75 0.48,-1.15l1.3 -14.04c6.61,0.52 5.23,6.05 16.59,1.1 11.68,-11.05 -3.35,-47.67 -11.5,-58.75 -1.24,1.21 -3.81,-0.55 -0.11,7.92 3.61,8.24 7.46,14.05 9.87,21.68 3.65,11.59 7.08,27.44 -8.89,27.29l-6.15 -7.06c2.45,-8.07 3.03,-10.02 2.94,-19.17 -3.63,2.75 -1.86,-3.04 -3.98,5.16 -0.57,2.28 0.28,9.11 -2.25,14.41 -16.96,5.41 -12.31,-12.87 -8.92,-21.71 2.35,-6.15 10.51,-17.13 14.59,-22.78 -1.72,-1.73 3.54,-2.41 -3.15,-1.06 -4.02,2.98 -13.46,18.67 -15.3,24.12 -4.77,14.16 -6.75,28.78 12.81,25.04l-2.12 23.12c-7.31,10.47 -32.12,27.35 -11.11,42.34l4.95 2.05 -2.49 2.71 -4.95 10.08c-3.11,-6.93 -3.24,-15.39 -6.47,-22.45 -3.29,-7.17 -6.56,-12.14 -9.43,-20.03l-1.45 -2.89c6.21,-0.96 1.3,-0.59 3.28,1.17 30.93,6.7 15.57,-33.54 9.66,-47.3 -11.82,-27.52 -24.07,-33.2 -15.32,-57.75 5.23,2.74 11.61,1.02 14.51,-4.38 2.52,-11.46 -7.72,-29.73 -16.83,-37.3 -5.55,2.33 -13.89,14.7 -17.44,20.47 -5.34,8.67 1.76,22.74 13.9,14.33l0 0z"/>
    <path class="fil5" d="M361.08 295.48c5.95,4.2 12.36,30.06 12.82,37.72 -6.4,-1.81 -6.25,-11.44 -8.44,-18.41 -1.66,-5.31 -7.03,-15.59 -4.38,-19.31l0 0zm-9.93 -27.6l2.02 0.24c-0.94,6.18 -6.4,15.57 -8.37,23.54 -17.25,69.56 20.25,61.96 24.71,53.06l2.78 -3.61 3.18 1.76 3.07 -0.84 -0.35 4.37 14.88 -32.8c-0.01,-7.13 -23.8,-38.9 -27.11,-42.14 -4.39,-4.28 -8.26,-5.75 -12.09,-10.64 1.34,-1.95 -3.12,-3.58 2.78,-0.8 -1.37,-2.64 2.33,-1.58 -2.81,-2.25l-2.69 10.11 0 0z"/>
    <path class="fil6" d="M119.99 313.43c-2.01,-3.98 2.19,-10.86 3.74,-15.8 1.31,-4.13 3.9,-14.36 7.27,-16.09 3.51,4.89 -5.44,29.01 -11.01,31.89zm-6 12.65c1.28,-5.68 -0.98,-5.67 2.93,-9.8 4.76,5.34 -1.16,12.91 9.98,18.29 6.96,-12.3 4.51,-27.61 23.31,-5.65l4.82 -10.01c-26.52,-10.82 -10.63,-39.55 -10.61,-39.56 -1.43,-8.42 -6.18,-23.14 -11.73,-29.18 -5.56,3.91 -27.97,32.7 -33.71,39.71 -6.7,8.22 -9.07,15.22 -8.13,26.32 1.28,15.07 12.01,12.29 23.14,9.88l0 0z"/>
    <path class="fil7" d="M221.33 178.03l2.47 15.32c-4.6,-1.79 -4.92,-7.39 -5.19,-12.39 -3.07,-4.2 -2.91,-3.14 -0.19,-7.2 3.27,1.74 1.48,-1.5 2.91,4.27zm-29.12 -0.11c3.36,1.49 1.43,1.42 5.06,0.23l10.08 -0.68 -1.94 2.95c1.61,3.43 0.26,0.8 1.75,3.14 6.86,10.88 -0.66,9.01 -3.77,17.1 1.98,8.73 13.42,13.34 22.14,14 11.84,0.88 18.97,-3.64 28.38,-9.58l-1.54 -10.04c-5.56,-3.99 -6.23,-3.81 -10.17,-9.7 0.01,-7.12 3.24,-6.13 -0.07,-7.2 -5.82,-0.11 -5.71,1.17 -8.27,-2.92 3.44,-2.15 6.76,-1.54 11.99,-2.2l0.7 2.99c2.64,1.17 3.11,-0.66 1.82,1.15 1.14,-7.39 2.02,-12.87 -0.13,-20.34l-12.76 -7.5 -2.47 0.69 0.45 4.77c-10.74,2.92 -13.96,2.78 -24.2,-0.09 -4.31,-0.57 1.05,-0.82 -2.54,0.3 -0.2,0.05 -0.83,0.89 -0.98,0.58 -0.16,-0.36 -0.66,0.49 -1,0.74l-8.76 -0.08 -3.16 -8.07c-0.11,-0.16 -1.7,-2.3 -2,-2.64 -0.17,-0.19 -0.73,-0.28 -0.85,-0.8 -0.14,-0.54 -0.62,-0.51 -0.93,-0.77 -0.01,16.26 0.62,18.44 3.17,33.97l0 0z"/>
    <path class="fil8" d="M201.66 396.58c5.11,-0.65 5.39,-0.34 6.47,5.47 -6.59,1.37 -4.29,-1.6 -6.47,-5.47zm-35.56 -50.9c3.82,2.19 4.4,3.68 5.43,8.08 -5.87,-0.67 -6.44,-1.18 -5.43,-8.08zm74.21 56.15c2.84,-2.72 0.95,0.17 1.99,-3.34l-14.12 -0.61 -2.41 -6.65c-7.01,-0.8 -26.56,-2.49 -29.47,-9.91 -2.05,-5.22 2.39,-0.82 -3.44,-9.24l0.08 -14.69c4.69,-4.44 2.26,-4.59 5.12,-9.6 8.81,-1.34 11.85,1.18 20.25,1.58l-0.91 -9.33 -31.33 1.07c0.72,10.3 -0.08,54.16 2.74,58.55l-4.16 1.08 -1.9 -59.31c-5.14,-2.29 -14.93,-3.31 -20.93,-4.33 3.01,-5.2 -1.85,-1.1 4.61,-2.84 -6.1,-2.73 -1.79,0.55 -3.65,-3.54 -5.57,10.51 -6.1,9.05 -6.4,19.86 -0.23,8.08 -1.84,16.86 -0.15,24.8 19.43,-15.69 16.7,13.63 18.58,29.84 15.62,6.4 49.97,2.36 65.51,-3.4l-0.01 0.01z"/>
    <path class="fil4" d="M443.82 344.96c2.26,-3.49 2.76,-5.94 8.14,-6.49 0.37,4.87 -0.16,4.15 -5.11,6.98l-3.96 5.21c6.51,21.15 27.94,23.83 33.24,4.12 4.94,-18.33 6.34,-38.02 3.42,-57.22 -2.97,-0.41 -50.1,12.09 -50.03,42.23 5.78,4.69 2.35,5 10.31,7.46l3.99 -2.28 0 -0.01z"/>
    <path class="fil5" d="M336.02 382.62l10.89 24.06c-4.16,-1.59 -7.09,-5.58 -9.06,-10.1 -3.76,-8.63 -4.31,-10.46 -1.83,-13.96zm16.2 39.56c2.41,-1.98 0.98,-1.14 4.47,-2.03 4.67,-1.2 1.24,1.37 5.15,-1.52l-6.98 -0.89c8.15,-4.1 14.21,-2.14 13.85,-15.7 -0.21,-7.51 -4.6,-14.24 -10.38,-18.88 -8.96,-7.2 -24.83,-17.3 -35.13,-20.7 -2.47,10.85 -3.99,37.05 -3.33,48.2 0.88,14.95 5.26,27.13 22.52,26.79 5.44,-4.89 6,-7.01 6.4,-14.99l3.43 -0.28 0 0z"/>
    <path class="fil9" d="M216.23 317.59c3.73,1.47 5.27,1.26 3.48,7.16 -4.21,-1.89 -3.21,-1.22 -3.48,-7.16zm-14.21 -15.47c6.17,4.57 12.67,16.06 11.47,24.07l9.29 0 1.42 -2.57c0.86,-4.26 0.47,-5.37 3.91,-8.04 2.05,3.07 0.2,6.01 -1.56,10.29l-0.37 1.83 5.02 -1.01 0 -2.26c-0.97,-0.61 -2.34,2.67 -0.44,-1.47 0.2,-0.42 1.24,-1.7 1.61,-2.15 1.34,-1.64 2.77,-3.13 4.2,-4.64 3.53,-3.76 5.01,-4.75 9.47,-7.64 28.84,-18.64 7.46,-34.45 -12.32,-22.27 -9.33,5.74 -7.84,16.3 -12.58,23.68 -1.26,-1.95 -2.78,-0.93 -0.88,-8.32 2.09,-8.13 5.74,-15.48 13.94,-18.99l0.13 -3.94c-2.29,-8.64 -0.43,-9.44 -7.27,-16.2 -13.57,-1.63 -18.54,-0.25 -25.9,11.3 -8.55,13.41 0.02,19.04 0.86,28.33l0 0z"/>
    <path class="fil4" d="M72.58 370.2l14.26 -16.74c-1.73,-4.37 -20.56,-34.35 -16.93,-45.73 4.71,2.23 3.5,3.53 5.04,9.29 2.41,9.03 7.6,24.61 13.43,30.97l7.11 -3.99c2.85,1.91 3.33,1.8 5.61,5.45 2.56,4.09 0.4,2.71 4.48,5.99l6.59 -4.36c-0.43,-7 -3.97,-12.96 -7.47,-18.35 -31.91,-5.49 -5.4,-21.76 -27.9,-33.2 -3.71,-1.89 -9.34,-4.61 -12.43,-6.72 -5.83,10.81 -10.18,51.36 -4.66,65.12 3.42,8.52 4.41,10.24 12.87,12.27l0 0z"/>
    <path class="fil5" d="M98.69 263.66l4.48 -2.41c-1.05,-5 -2.08,-9.57 -3.43,-14.48l-2.75 -10.52c0.08,-7.84 -0.36,-1.37 1.58,-4.36 8.2,7.8 1.78,29.31 17,32.43 10.05,-13.74 9.08,-21.32 2.11,-37l-17.33 -32.51c-9.32,3.84 -46.14,69.51 -1.83,65.16 0.86,1.47 0.79,0.04 0.17,3.69l0 0z"/>
    <path class="fil10" d="M217.95 353.24l8.2 0.73c-0.09,6.6 -1.95,9.25 -1.02,16.75 0.75,6 2.21,9.96 0.72,16.71l-7.39 -0.55c-7.94,-1.78 -14,-1.23 -18.76,-7.85 10.88,-1.83 10.98,3.7 17.44,0.04 -6.93,-5.76 -16.48,-1.1 -20.91,-10.71l10.71 1.85 9.08 0.2 -4.33 -3.4c-7.57,0.36 -13.52,-0.99 -15.64,-8.49 9.95,1.43 13.3,4.96 18.06,0.8 -6.04,-3.36 -10.23,-0.18 -13.05,-7.12 4.35,-1.84 11.38,0.87 16.89,1.04l0 0zm23.26 -16.84l0.74 9.45c-4.66,-0.66 -4.59,-0.13 -8.24,-0.4 -6.46,-0.51 -1.08,0.73 -5.22,-1.5 -1.39,2.51 -0.92,0.06 0.13,5.12l-6.54 0.53 -0.57 -9.67 19.7 -3.53 0 0zm-6.33 -15.12c-0.69,3.82 -5.04,-6.39 0.33,5.13l-4.01 -1.98 0 2.26 7.88 5.39c-7.6,4.93 -28.25,5.44 -38.45,4.3l4.12 -5.37c0.93,-4.26 1.73,-3.28 -2.65,-2.73l-3.31 3.75 -1.9 5.67c-4.91,1.21 -8.92,0.55 -13.27,-1.17l-17.19 -2.27c-6.46,1.74 -1.6,-2.36 -4.61,2.84 6,1.02 15.79,2.04 20.93,4.33l1.9 59.31 4.16 -1.08c-2.82,-4.39 -2.02,-48.25 -2.74,-58.55l31.33 -1.07 0.91 9.33c-8.4,-0.4 -11.44,-2.92 -20.25,-1.58 -2.86,5.01 -0.43,5.16 -5.12,9.6l-0.08 14.69c5.83,8.42 1.39,4.02 3.44,9.24 2.91,7.42 22.46,9.11 29.47,9.91l2.41 6.65 14.12 0.61c-1.04,3.51 0.85,0.62 -1.99,3.34 0.25,0.3 0.49,0.39 0.64,0.99 0.16,0.7 0.56,0.82 0.78,1.11 0.25,0.34 0.58,0.85 0.94,1.23l3.04 -1.2c0.17,-0.37 0.33,-1.36 0.41,-1.13 0.07,0.18 -1.1,-1.28 4.63,-5.59l-3.44 -1.9c8.39,2.11 2.39,0.94 5.2,-0.37l-21.58 -0.59 -1.37 -6.84c5.24,0.15 6.1,1.64 9.97,0.23 -1.42,-3.19 -0.11,-1.73 -3.76,-3.15 -6.55,-2.53 -5.31,0.67 -6.55,-10.43 6.53,0.48 8.82,2.91 13.04,-0.68 -3.76,-3.08 -8.18,-2.46 -13.48,-3.11l-0.52 -6.87c3.15,-1.62 5.09,-2.7 8.52,-2.57 3.12,0.12 3.52,0.95 4.83,1.1 11.38,1.36 2.12,1.29 6.04,-1.49 -5.78,-4.07 -10.13,-3.56 -17.74,-2.57l2.2 -8.7 22.9 -0.69c6.85,-12.25 12.86,-9.22 26.8,-12.62 9.9,-2.41 23.01,-5.33 24.37,-16.89 -9.68,3.33 -3.35,9.04 -29.69,14.37 -4.65,0.95 -13.57,1.73 -17.23,3.99 -8.95,5.5 -0.72,7.3 -14.04,7.73 -1.15,-23.78 -5.69,-11.7 -10.34,-23.91z"/>
    <path class="fil4" d="M145.23 422.29c0.77,-6.36 7.63,-22.1 13.1,-24.35 1.73,3.62 -3.85,11.77 -7.62,19.29 -3,5.97 -1.18,3.93 -5.48,5.06l0 0zm-5.33 -0.3c3,-0.88 2.74,-0.76 5.33,0.3 1.6,1.46 1.87,1.5 2.42,3.36 3.86,1.57 2.12,0.74 4.84,3.7 1.7,1.88 0.61,1.15 3.02,3.16 14.47,-0.71 14.72,-12.75 15.17,-24.74 0.35,-9.43 0,-25.75 -5.28,-32.7 -5.1,1.51 -27.3,12.54 -32.6,15.76 -10.57,6.44 -15.14,19.82 -7.25,30.68 8.06,2.3 6.93,-0.07 14.35,0.48l0 0z"/>
    <path class="fil4" d="M24.15 282.72c3.78,2.67 9.84,12.18 9.34,17.17 -4.4,-0.55 -4.43,-3.09 -6.81,-7.08 -8.77,-14.81 -3.32,-8.44 -2.53,-10.09zm-1.31 48.54c7.95,-0.13 13.79,-3.28 17.18,-10.47 -1,-6.52 -3.01,-5.58 -4.84,-12.15 7.01,1.64 4.26,2.11 9.06,8.05l9.93 0.65c12.71,-31.4 -33.27,-44.93 -37.28,-43.91 -1.51,4.74 -3.23,26.02 -3.29,31.6 -0.15,12.47 -0.66,18.85 9.24,26.23l0 0z"/>
    <path class="fil6" d="M138.58 353.8c5.44,2.48 8.9,17.88 7.79,23.46 -5.13,-2.14 -8.63,-18.09 -7.79,-23.46zm13.6 22.59l1.3 -38.55c-12.94,-11.22 -6.09,-10.89 -17.03,-15.99 -4.71,10.22 -12.4,34.54 -14.73,45.34 -1.5,7.02 0.7,18.53 9.58,19.07 3.09,0.19 16.6,-7.87 20.88,-9.87l0 0z"/>
    <path class="fil11" d="M173.75 322.64l2.2 -0.22 -4.75 -7.64c6.57,0.7 6.65,0.59 8.17,7.56l7.24 -1.01 0.31 -4.53c-0.24,-2.85 0.64,-2.35 -1.76,-2.35 -0.95,4.73 1.5,1.73 -2.54,3.62 -1.5,-4.34 0.3,-2.89 0.73,-8.63 0.3,-4.13 -0.78,-8.15 -1.64,-12.16l-1.61 1.01 -1.2 -2.85c-0.77,-15.98 -10.75,-19.24 -24.82,-19.24 -11.09,7.54 -13.06,18.48 -7.83,30.98 5.12,12.26 21.49,5.92 27.5,15.46l0 0z"/>
    <path class="fil12" d="M372.14 247.43c0.8,1.02 0.95,1.02 2.01,3.17 0.15,0.28 0.29,1.54 0.38,1.32 0.11,-0.25 0.21,0.92 0.3,1.39 2.59,13.46 0.84,4.57 -0.79,15.73l-1.68 3.61c-2.78,0.3 -1.99,0.85 -1.99,-2.14l-13.72 -10.49c-5.9,-2.78 -1.44,-1.15 -2.78,0.8 3.83,4.89 7.7,6.36 12.09,10.64 3.31,3.24 27.1,35.01 27.11,42.14l-14.88 32.8c-2.21,10.33 -5.32,13.22 -4.2,25.71 1.08,12 9.3,10.76 19.18,10.71l0.55 -3.39 -12.87 -0.26c-10.59,-19.08 8.81,-47.06 16.3,-64.16 -9.56,-44.08 -41.53,-20.75 0.41,-79.83 -1.03,-1.32 1.13,-0.5 -1.79,-0.7 -2.17,1.17 -2.19,0.86 -4.78,3.56 -1.85,1.93 -2.3,2.81 -3.8,4.89 -2.68,3.74 -4.44,6.18 -6.08,10.54 -1.95,2.02 2.6,4.03 -2.5,1.35l-0.83 -4.1 -4.24 -11.41c12.75,-0.97 8.53,-1.35 16.28,-7.82 -0.27,-11.11 -1.98,-12.65 -8.86,-20.65 -4.03,-4.66 -10.71,-11.17 -16.06,-12.56l-1.35 2.6c5.06,4.36 30.79,21.7 19.67,32.29 -5.05,4.79 -8.71,1.18 -13.56,-0.37 -3.46,4.47 -0.84,4.58 -5.85,6.51 -6.5,0.42 -7.58,-13.71 -7.27,-18.5 0.33,-5.15 2.26,-16.67 4.25,-21.85l-3.15 -0.95c-5.09,10.22 -8.16,35.1 1.93,44.28l11.01 0.02 1.56 5.12 0 0z"/>
    <path class="fil4" d="M89.72 395.74c5.78,-10.47 -2.45,-16.5 5.48,-18.95l0.63 17.27c7.52,1.3 8.22,-0.23 11.23,-6.3 6.39,-12.91 -6.71,-33.61 -11.46,-38.63 -2.48,2.25 -17.65,20.07 -18.94,22.62 -5.5,10.79 -3.72,28.02 13.06,23.99z"/>
    <path class="fil6" d="M449.4 234.2c6.69,-1.35 1.43,-0.67 3.15,1.06 -4.08,5.65 -12.24,16.63 -14.59,22.78 -3.39,8.84 -8.04,27.12 8.92,21.71 2.53,-5.3 1.68,-12.13 2.25,-14.41 2.12,-8.2 0.35,-2.41 3.98,-5.16 0.09,9.15 -0.49,11.1 -2.94,19.17l6.15 7.06c15.97,0.15 12.54,-15.7 8.89,-27.29 -2.41,-7.63 -6.26,-13.44 -9.87,-21.68 -3.7,-8.47 -1.13,-6.71 0.11,-7.92 -1.71,-1.42 2.47,-1.98 -2.67,-0.89l-3.38 5.57 0 0z"/>
    <path class="fil6" d="M58.03 241.33c3.88,13.11 1.37,8.63 0.47,10.26 -3.29,-2.94 -7.78,-15.28 -5.49,-18.89 4.5,2.18 3.62,3.88 5.02,8.63zm-12.37 27.9c11.86,-0.05 10.69,-6.31 17.12,-12.54 8.01,1.54 4.2,6.1 13.89,3.53 0.44,-4.52 -5.96,-19.89 -9.17,-24.05 -6.98,-9.04 -10.25,-9.3 -18.83,-14.59 -5.27,11.31 -12.48,38.04 -3.01,47.65l0 0z"/>
    <path class="fil9" d="M175.8 276.51l7.38 16.67c-2.64,3.61 0.27,0.95 -4.28,2.26l1.2 2.85 1.61 -1.01 3.22 0.61c3.1,4.54 2.63,7.9 2.79,13.86 5.41,-0.4 1.1,-0.37 3.07,1.43l-1.03 7.72c3.25,-0.78 1.71,0.45 3.74,-1.54l-0.4 -4.33 7.33 -8.95 0.6 -3.29c-7.1,-3.62 -7.78,-17.85 -5.71,-25.15 2.67,-9.51 12.48,-14.06 13.82,-19.11 -10.9,-8.06 -33.63,3.27 -33.34,17.98l0 0z"/>
    <path class="fil4" d="M364.9 198.28c-2.37,-3.51 -5.34,-1.31 -7.26,-0.26l3.15 0.95c-1.99,5.17 -3.92,16.69 -4.25,21.84 -0.31,4.79 0.77,18.93 7.27,18.5 5.01,-1.93 2.39,-2.04 5.85,-6.51 4.85,1.55 8.51,5.16 13.56,0.37 11.12,-10.58 -14.61,-27.93 -19.67,-32.29l1.35 -2.6z"/>
    <path class="fil4" d="M405.6 207.53l2.12 -0.69 6.96 5.11 7.9 -2.08c1.05,-10.44 -1.29,-10.3 -5.14,-18.35 -3.25,-6.79 -3.89,-11.26 -10.55,-14.25 -3.37,9.39 -12.25,13.85 -13.27,23.76l3.36 4.89c4.91,0.52 2.22,0.77 7.08,-1.5l1.54 3.11 0 0z"/>
    <path class="fil6" d="M115.95 194.82c3.72,2.15 8.25,1.97 13.88,2.76 2.68,4.83 2.85,5.76 8.56,5.63 7.82,-8.76 -0.67,-22.22 -1.93,-33.14 -11.9,2.84 -22.78,11.06 -20.51,24.75z"/>
    <path class="fil13" d="M189.76 320.9l-3.15 0.43 -7.24 1.01 -3.42 0.08 -2.2 0.22 -10.97 8.08c1.86,4.09 -2.45,0.81 3.65,3.54l17.19 2.27 10.42 0.56 4.75 -5.06 3.31 -3.75c3.45,-2.56 2.76,-1.22 4.55,-4.93l-13.15 -3.99c-2.03,1.99 -0.49,0.76 -3.74,1.54l0 0z"/>
    <path class="fil5" d="M25.36 368.75c0.55,6.52 -0.57,16.45 3.34,21.71 12.38,16.65 43.24,-18.97 -3.34,-21.71z"/>
    <path class="fil14" d="M211.69 367.01c6.55,0.28 3.6,-0.37 4.81,3.65 -4.21,2.69 -5.87,2.11 -9.56,-0.45l-10.71 -1.85c4.43,9.61 13.98,4.95 20.91,10.71 -6.46,3.66 -6.56,-1.87 -17.44,-0.04 4.76,6.62 10.82,6.07 18.76,7.85l3.14 -30.71 -3.65 -2.93c-5.51,-0.17 -12.54,-2.88 -16.89,-1.04 2.82,6.94 7.01,3.76 13.05,7.12 -4.76,4.16 -8.11,0.63 -18.06,-0.8 2.12,7.5 8.07,8.85 15.63,8.49l0.01 0z"/>
    <path class="fil15" d="M234.2 282.63c-8.2,3.51 -11.85,10.86 -13.94,18.99 -1.9,7.39 -0.39,6.37 0.88,8.31 4.74,-7.37 3.25,-17.93 12.58,-23.67 19.78,-12.18 41.16,3.63 12.32,22.27 -4.46,2.89 -5.94,3.88 -9.47,7.64 -1.43,1.51 -2.86,3 -4.2,4.64 -0.37,0.45 -1.41,1.73 -1.61,2.15 -1.9,4.14 -0.53,0.86 0.44,1.47l4.01 1.98c-5.37,-11.52 -1.02,-1.31 -0.33,-5.13 1.75,-0.53 11.08,-8.43 14.51,-10.86 4.96,-3.53 11.09,-5.77 13.53,-13.51 5.39,-17.13 -17.06,-24.07 -28.72,-14.28z"/>
    <path class="fil7" d="M278.87 152.32c-0.9,6.85 1.21,31.05 5.23,35.33 1.62,-0.67 1.72,2.37 5.07,-7.11 1.14,-3.21 2.31,-6.34 2.91,-9.64 1.97,-10.82 1.05,-12.95 -5.28,-20.89l-7.93 2.31z"/>
    <path class="fil12" d="M25.36 368.75c46.58,2.74 15.72,38.36 3.34,21.71 -3.91,-5.26 -2.79,-15.19 -3.34,-21.71zm-2.29 -2.12c-3.58,3.61 -1.18,21.98 2.73,26.78 6.4,7.85 17.27,6.83 23.78,-0.32 18.9,-20.78 -20.23,-32.76 -26.51,-26.46z"/>
    <path class="fil16" d="M204.75 331.01l-4.12 5.37c10.2,1.14 30.85,0.63 38.45,-4.3l-7.88 -5.39 -5.02 1.01 -3.4 -1.51 -9.29 0 -8.74 4.82 0 0z"/>
    <path class="fil17" d="M196.7 316.84c2.53,-3.81 3.08,-5.65 7.44,-7.07l4.99 10.5 -12.43 -3.43zm4.33 -14.05l-0.6 3.29 -7.33 8.95 0.4 4.33 13.15 3.99c-1.79,3.71 -1.1,2.37 -4.55,4.93 4.38,-0.55 3.58,-1.53 2.65,2.73l8.74 -4.82c1.2,-8.01 -5.3,-19.5 -11.47,-24.07l-0.99 0.67 0 0z"/>
    <path class="fil18" d="M203.39 200.66c3.11,-8.09 10.63,-6.22 3.77,-17.1 -1.49,-2.34 -0.14,0.29 -1.75,-3.14l-7.54 0.71 -0.6 -2.98c-3.63,1.19 -1.7,1.26 -5.06,-0.23 3,7.47 5.57,17.87 11.18,22.74l0 0z"/>
    <path class="fil18" d="M218.46 386.88l7.39 0.55c1.49,-6.75 0.03,-10.71 -0.72,-16.71 -0.93,-7.5 0.93,-10.15 1.02,-16.75l-8.2 -0.73 3.65 2.93 -3.14 30.71 0 0z"/>
    <path class="fil18" d="M284.1 187.65c-4.02,-4.28 -6.13,-28.48 -5.23,-35.33 -8.38,7.44 -3.4,23.66 -2.56,38.86l7.79 -3.53z"/>
    <path class="fil8" d="M221.51 339.93l0.57 9.67 6.53 -0.53c-1.04,-5.06 -1.51,-2.61 -0.12,-5.12 4.14,2.23 -1.24,0.99 5.22,1.5 3.65,0.27 3.58,-0.27 8.24,0.4l-0.74 -9.45 -19.7 3.53 0 0z"/>
    <path class="fil19" d="M373.9 333.2c-0.46,-7.66 -6.87,-33.52 -12.82,-37.72 -2.65,3.72 2.72,14 4.38,19.31 2.19,6.97 2.04,16.6 8.44,18.41l0 0z"/>
    <path class="fil18" d="M253.82 174.64c0.12,4.73 0.73,21.35 3.81,23.68 1.29,-5.52 -0.14,-4.24 5.26,-7.01 -0.76,-5.42 -0.74,-16.39 -3.95,-19.75l-0.61 3.12c-0.08,-0.06 1.7,-2.18 -4.51,-0.04l0 0z"/>
    <path class="fil18" d="M246.55 176.01l-4.42 2.13c3.31,1.07 0.09,0.08 0.07,7.2 3.94,5.89 4.61,5.71 10.17,9.7 -0.67,-6.59 -1.88,-13.24 -1.88,-19.83 0,-3.26 0.22,-6.72 0.22,-10.05 -0.02,-6.54 1.14,-5.49 -2.47,-8.34 2.15,7.47 1.27,12.95 0.13,20.34 1.29,-1.81 0.82,0.02 -1.82,-1.15z"/>
    <path class="fil19" d="M119.99 313.43c5.57,-2.88 14.52,-27 11.01,-31.89 -3.37,1.73 -5.96,11.96 -7.27,16.09 -1.55,4.94 -5.75,11.82 -3.74,15.8z"/>
    <path class="fil18" d="M242.64 218.21c5.3,5.55 1.49,0.49 18.95,-0.92l-4.55 -9.36c-5.04,1.99 -12.66,5.86 -14.4,10.28z"/>
    <path class="fil3" d="M402.17 366.96c2.4,-4.58 1.98,-28.01 -1.13,-32.02 -2.31,3.76 -1.47,0.18 -1.42,6.51 0.06,7.22 -0.97,22.59 2.55,25.51l0 0z"/>
    <path class="fil20" d="M145.23 422.29c4.3,-1.13 2.48,0.91 5.48,-5.06 3.77,-7.52 9.35,-15.67 7.63,-19.29 -5.48,2.25 -12.34,17.99 -13.11,24.35l0 0z"/>
    <path class="fil21" d="M138.58 353.8c-0.84,5.37 2.66,21.32 7.79,23.46 1.11,-5.58 -2.35,-20.98 -7.79,-23.46z"/>
    <path class="fil20" d="M346.91 406.68l-10.89 -24.06c-2.48,3.5 -1.93,5.33 1.83,13.96 1.97,4.52 4.9,8.51 9.06,10.1z"/>
    <path class="fil3" d="M33.49 299.89c0.5,-4.99 -5.56,-14.5 -9.34,-17.17 -0.79,1.65 -6.24,-4.72 2.53,10.09 2.38,3.99 2.41,6.53 6.81,7.08z"/>
    <path class="fil3" d="M58.5 251.59c0.9,-1.63 3.41,2.85 -0.47,-10.26 -1.4,-4.75 -0.52,-6.45 -5.02,-8.63 -2.29,3.61 2.2,15.95 5.49,18.89z"/>
    <path class="fil22" d="M253.82 174.64c6.21,-2.14 4.43,-0.02 4.51,0.05l0.61 -3.13c0.05,-6.51 0.6,-10.61 -5.15,-13.92l0.03 17 0 0z"/>
    <path class="fil23" d="M196.7 316.84l12.43 3.43 -4.99 -10.5c-4.36,1.42 -4.91,3.26 -7.44,7.07z"/>
    <path class="fil24" d="M185.16 314.45c2.14,-6.95 0.99,-9.61 -0.23,-16.56l-3.22 -0.61c0.86,4.01 1.94,8.03 1.63,12.16 -0.42,5.74 -2.23,4.29 -0.72,8.63 4.04,-1.89 1.59,1.11 2.54,-3.62l0 0z"/>
    <path class="fil25" d="M218.61 180.96c0.27,5 0.59,10.6 5.19,12.39l-2.47 -15.32 -3.52 -3.15 0.8 6.08 0 0z"/>
    <path class="fil26" d="M242.13 178.14l4.42 -2.13 -0.7 -2.99c-5.23,0.66 -8.55,0.05 -11.99,2.2 2.56,4.09 2.45,2.81 8.27,2.92l0 0z"/>
    <path class="fil27" d="M204.73 156.31c0.35,-0.25 0.84,-1.1 1.01,-0.74 0.15,0.31 0.78,-0.53 0.98,-0.58 3.59,-1.12 -1.77,-0.87 2.54,-0.3 -3.12,-7.52 -4.91,-3.58 -7.17,-9.47 -2.41,-0.35 -1.94,-0.95 -1.82,1.32 1.9,4.24 4.22,6.78 4.46,9.77l0 0z"/>
    <path class="fil22" d="M257.63 198.32c0.48,3.4 -2.15,3.18 1.68,2.39 3.66,-3.9 4.94,-3.6 3.58,-9.4 -5.4,2.77 -3.97,1.49 -5.26,7.01l0 0z"/>
    <path class="fil24" d="M224.2 323.62l-0.72 3.49 3.07 -1.24c1.76,-4.28 3.61,-7.22 1.56,-10.29 -3.44,2.67 -3.05,3.78 -3.91,8.04z"/>
    <path class="fil24" d="M175.95 322.42l3.42 -0.08c-1.52,-6.97 -1.6,-6.86 -8.17,-7.56l4.75 7.64z"/>
    <path class="fil28" d="M443.82 344.96c5.26,-2.67 1.74,-1.34 3.03,0.49 4.95,-2.83 5.48,-2.11 5.11,-6.98 -5.39,0.55 -5.88,3 -8.14,6.49z"/>
    <path class="fil10" d="M171.53 353.76c-1.03,-4.4 -1.61,-5.89 -5.43,-8.08 -1.01,6.9 -0.44,7.41 5.43,8.08z"/>
    <path class="fil26" d="M201.66 396.58c2.18,3.87 -0.12,6.84 6.47,5.47 -1.08,-5.81 -1.36,-6.12 -6.47,-5.47z"/>
    <path class="fil29" d="M185.16 314.45c2.4,0 1.52,-0.5 1.76,2.35l1.45 -4.2 2.42 0.58c-1.97,-1.8 2.34,-1.83 -3.07,-1.43 -0.16,-5.96 0.31,-9.32 -2.79,-13.86 1.22,6.95 2.37,9.61 0.23,16.56z"/>
    <polygon class="fil17" points="186.92,316.8 186.61,321.33 189.76,320.9 190.79,313.18 188.37,312.6 "/>
    <polygon class="fil30" points="205.41,180.42 207.35,177.47 197.27,178.15 197.87,181.13 "/>
    <path class="fil31" d="M219.71 324.75c1.79,-5.9 0.25,-5.69 -3.48,-7.16 0.27,5.94 -0.73,5.27 3.48,7.16z"/>
    <path class="fil32" d="M183.62 336.53c4.35,1.72 8.35,2.38 13.27,1.17l1.9 -5.67 -4.75 5.06 -10.42 -0.56 0 0z"/>
    <path class="fil33" d="M206.94 370.21c3.69,2.56 5.35,3.14 9.56,0.45 -1.21,-4.02 1.74,-3.37 -4.81,-3.64l4.33 3.4 -9.08 -0.21 0 0z"/>
    <path class="fil32" d="M189.04 143.95c0.31,0.26 0.79,0.23 0.93,0.77 0.12,0.52 0.68,0.61 0.85,0.8 0.3,0.34 1.88,2.48 1.99,2.64l-1 -7.79c-0.08,-0.21 -0.37,-0.56 -0.55,-0.84l-2.22 4.42 0 0z"/>
    <path class="fil34" d="M218.61 180.96l-0.8 -6.08 3.52 3.15c-1.43,-5.77 0.36,-2.53 -2.91,-4.27 -2.72,4.06 -2.88,3 0.19,7.2l0 0z"/>
    <path class="fil35" d="M233.01 150.01l2.47 -0.69 -3.33 -5.04c-1.19,2.79 -1.39,2.19 0.86,5.73z"/>
    <path class="fil32" d="M108.34 363.13l2.12 -5.35 -3.65 1.24c-0.68,8.02 -0.26,1.15 1.53,4.11z"/>
    <path class="fil36" d="M335.91 249.65c-2.52,-3.13 -0.98,0.02 -3.11,-5.28l0 6.5c6.69,2.3 0.74,0.57 3.11,-1.22z"/>
    <polygon class="fil37" points="369.51,344.72 374.16,342.13 373.42,346.7 375.47,342.87 372.29,341.11 "/>
    <path class="fil38" d="M138.35 233.02c1.76,4.71 -1.21,1.68 2.9,3.96 0.76,-1.3 3.32,0.69 0.11,-5.14l0.95 4.7 -3.96 -3.52 0 0z"/>
    <path class="fil39" d="M370.37 270.51c0,2.99 -0.79,2.44 1.99,2.14l1.68 -3.61c-2.07,1.28 -1.16,0.45 -3.67,1.47z"/>
    <path class="fil38" d="M200.28 146.54c-0.13,-2.27 -0.6,-1.67 1.81,-1.32 -2.37,-2.07 3.46,-2.28 -3.78,-1.49 0.69,5.66 -0.26,0.63 1.97,2.81l0 0z"/>
    <path class="fil40" d="M118.68 217.59l-2.82 -1.74 0.82 3.76c5.03,1.17 0.36,0.48 2,-2.02l0 0z"/>
    <polygon class="fil41" points="125.13,342.69 126.95,339.56 124.23,337.26 "/>
    <path class="fil41" d="M121.38 352.04l3.09 -7.36c-3.42,2.45 -2.56,2.85 -3.09,7.36z"/>
    <path class="fil41" d="M67.05 266.7l1.24 -2.38c-1.28,-2.3 2.05,-1.4 -2.51,-2.05l1.27 4.43z"/>
    <path class="fil38" d="M172.44 132.66l1.53 -2.83c-5.49,-1.41 -0.84,-0.66 -2.83,1.35l1.3 1.48z"/>
    <polygon class="fil42" points="130.97,245.12 128.12,247.04 126.69,243.64 127.43,249.15 "/>
    <path class="fil38" d="M415.29 321.18c0.03,-2.41 -0.58,-1.83 1.83,-1.72 -1.98,-1.76 2.93,-2.13 -3.28,-1.17l1.45 2.89 0 0z"/>
    <polygon class="fil39" points="74.18,236.31 70.42,235.23 73.09,238.32 "/>
    <polygon class="fil35" points="56.84,293.25 58.21,295.15 60.17,292.23 "/>
    <path class="fil32" d="M121.21 422.87l-2.77 -6.08c1.05,5.7 -0.21,2.72 2.77,6.08z"/>
    <polygon class="fil43" points="222.78,326.19 226.18,327.7 226.55,325.87 223.48,327.11 224.2,323.62 "/>
    <path class="fil42" d="M34.73 275.14c-0.29,-0.28 -0.67,-1.13 -0.85,-0.83 -0.18,0.29 -0.68,-0.62 -0.92,-0.74 -2.58,-1.25 -0.27,-0.47 -3.73,-1.35l5.5 2.92 0 0z"/>
    <path class="fil41" d="M374.83 253.31c-0.09,-0.47 -0.19,-1.64 -0.3,-1.39 -0.09,0.22 -0.23,-1.04 -0.38,-1.32 -1.06,-2.15 -1.21,-2.15 -2.01,-3.17l2.69 5.88z"/>
    <path class="fil44" d="M451.83 302.74c-5.3,2.4 -1.47,1.41 -2.76,-1.53 -0.14,0.4 -0.53,0.56 -0.49,1.15l3.25 0.38z"/>
   </g>
  </g>
 </g>
</svg>
