<?xml version="1.0" encoding="UTF-8"?>
<!DOCTYPE svg PUBLIC "-//W3C//DTD SVG 1.1//EN" "http://www.w3.org/Graphics/SVG/1.1/DTD/svg11.dtd">
<!-- Creator: CorelDRAW 2020 (64-Bit) -->
<svg xmlns="http://www.w3.org/2000/svg" xml:space="preserve" width="220px" height="270px" version="1.1" style="shape-rendering:geometricPrecision; text-rendering:geometricPrecision; image-rendering:optimizeQuality; fill-rule:evenodd; clip-rule:evenodd"
viewBox="0 0 220 270"
 xmlns:xlink="http://www.w3.org/1999/xlink"
 xmlns:xodm="http://www.corel.com/coreldraw/odm/2003">
 <defs>
  <style type="text/css">
   <![CDATA[
    .str1 {stroke:#373435;stroke-miterlimit:22.9256}
    .str0 {stroke:#373435;stroke-width:2;stroke-miterlimit:22.9256}
    .fil2 {fill:#643F2D}
    .fil22 {fill:#0D150A}
    .fil21 {fill:#1A2617}
    .fil1 {fill:#222121}
    .fil16 {fill:#232314}
    .fil4 {fill:#232B1D}
    .fil13 {fill:#252B23}
    .fil25 {fill:#262508}
    .fil20 {fill:#2A3325}
    .fil26 {fill:#2B231D}
    .fil11 {fill:#2B2423}
    .fil18 {fill:#2B2A18}
    .fil29 {fill:#333B2D}
    .fil27 {fill:#352A27}
    .fil32 {fill:#363519}
    .fil31 {fill:#433321}
    .fil9 {fill:#4B403F}
    .fil38 {fill:#5B6659}
    .fil39 {fill:#646463}
    .fil41 {fill:#656C61}
    .fil24 {fill:#686856}
    .fil3 {fill:#72715D}
    .fil30 {fill:#72725A}
    .fil35 {fill:#746759}
    .fil37 {fill:#787976}
    .fil44 {fill:#797867}
    .fil7 {fill:#7A8875}
    .fil6 {fill:#7D8A72}
    .fil5 {fill:#7D8A75}
    .fil42 {fill:#808381}
    .fil33 {fill:#888986}
    .fil40 {fill:#92988B}
    .fil34 {fill:#968B89}
    .fil43 {fill:#989997}
    .fil28 {fill:#9DA19C}
    .fil36 {fill:#A3A4A3}
    .fil45 {fill:#AAABA9}
    .fil10 {fill:#B5B383}
    .fil19 {fill:#B88A8A}
    .fil12 {fill:#B9B583}
    .fil23 {fill:#D9CBC4}
    .fil0 {fill:#DE799B}
    .fil15 {fill:#E4CBC3}
    .fil8 {fill:#E6C8BD}
    .fil17 {fill:#EFEFEF}
    .fil14 {fill:#F1F1EE}
   ]]>
  </style>
 </defs>
 <g id="Capa_x0020_2">
  <metadata id="CorelCorpID_0Corel-Layer"/>
 </g>
 <g id="Capa_x0020_1">
  <metadata id="CorelCorpID_1Corel-Layer"/>
  <polygon class="fil0 str0" points="46.47,188.71 179.87,188.71 179.87,56.61 46.47,56.61 "/>
  <g id="_2232533058944">
   <path class="fil1" d="M107.91 105.57c0.8,-2.02 4.29,-3.79 6.59,-4.7l2.09 4.28c-7.99,0.65 -6.25,2.96 -8.68,0.42zm41.26 14.95l0 -2.98c-1.06,-7.73 -5.57,-12.64 -6.77,-18.44 6.38,7.08 6.26,37.84 6.77,21.42zm-36.14 -34.89l-0.01 -7.78c2.63,1.52 2.38,3.39 2.35,6.37 1.47,1.54 1.46,6.56 1.81,9.04 0.62,2.66 0.04,2.52 -1.64,4.3 -1.75,0.37 -0.55,0.47 -0.77,-1.09 -1.41,-1.07 -1.68,-8.67 -1.74,-10.84zm13.86 5.96l-3.57 1.61c-0.38,-6.95 -2.66,-14.38 1.17,-17.78l3.63 -1.06c2.9,3.64 3.32,4.61 2.42,9.56 -0.27,1.51 -0.81,2.94 -1.33,4.41 -1.53,4.34 -1.58,2.95 -2.32,3.26zm-34.25 -15.09c4.68,1.32 6.16,1.38 11.07,0.05l-0.2 -2.19c-1.03,-1.62 -0.94,-1.34 -0.4,-2.62l1.53 2.31 5.84 3.43c1.65,1.3 1.12,0.82 1.13,3.81 0,1.53 -0.1,3.11 -0.1,4.6 0,3.02 0.55,6.06 0.86,9.08l0.7 4.59c-4.3,2.72 -7.57,4.79 -12.99,4.39 -3.99,-0.3 -9.22,-2.41 -10.13,-6.41 -2.57,-2.23 -3.74,-6.99 -5.11,-10.41 -1.17,-7.1 -1.46,-8.1 -1.46,-15.54l1.02 -2.02c0.08,0.12 0.22,0.28 0.25,0.38l0.46 3.56 1.45 3.7 4 0.03c-0.1,-1.36 -1.17,-2.53 -2.03,-4.47 -1.02,-0.99 -0.59,1.31 -0.9,-1.28 3.31,-0.36 0.64,-0.27 1.73,0.68l0 0c0.85,2.22 2.12,1.55 3.28,4.33zm-29.12 22.72c-2.21,5.65 -3.53,6.35 -3.33,13.13l1.81 1.61 -0.44 -2.15c0.81,-13.78 11.1,-15.29 10.88,-20.36 -0.22,-4.96 -2.08,-8.81 -1.41,-14.47 0.65,-5.48 2.18,-6.8 4.16,-11.24 0.91,-0.92 -1.21,-1.26 1.3,-0.61l-0.7 1.29c-1.17,6.54 -2.05,13.71 -0.56,20.18 4.2,18.19 -18.62,21.14 -6.49,39.72 1.75,2.68 4.11,3 7.08,3.41l-0.18 1.46 1.71 0.55 -0.03 0.51c-0.13,-6.73 10.27,-11.91 15.26,-8.23 -0.61,2.32 -5.1,4.4 -6.32,8.75 -0.95,3.34 -0.64,9.85 2.61,11.51l0.45 -0.31c-0.38,-4.25 -4.3,-6.82 -0.39,-12.96 3.37,-5.29 5.64,-5.92 11.85,-5.17 3.13,3.09 2.28,3.45 3.33,7.41l1.19 -0.06c-0.18,-8.96 -3.06,-8.55 -10.32,-9.58 0.13,-3.19 5.3,-6 7.59,-8.26l2.9 1.16 -2.39 -6.2c2.91,0 1.72,-0.83 3.1,2.05 0.81,1.68 0.77,2 2.26,2.84 1.02,-2.29 -0.85,-3.02 -1.83,-5.88l3.21 -0.6c1.43,2.51 1.68,3.91 4.17,4.82 -0.44,-2.74 -1.26,-3.02 -2.28,-5.61l1.99 -0.84c2.35,1.32 2.05,4.19 4.56,5.59 0.83,-1.64 -0.9,-4.31 -2.1,-6l3.44 -0.48c1.34,4.8 2.09,3.11 -2.79,12.83 -1.51,2.99 -5.61,9.45 -4.42,11.98 2.7,1.59 6.16,0.58 9.13,-0.91 1.04,1.64 0.44,0.55 0.95,3.24 13.65,-0.1 11.52,-9.9 12.89,-13.37 2.69,0.32 10.99,4.7 11.97,7.79 -2.1,3.79 -5.23,8.89 -5.7,13.25 2.83,-1.38 6.3,-7.99 8.75,-10.47 6.83,8.32 -2.57,20.12 2.22,32.11 1.51,3.8 4.89,4.11 7.73,5.52 0.04,3 -0.7,5.91 -2.19,8.11 -4.6,-1.13 -11.16,-6.63 -14.35,-6.95 -1.67,3.25 -1.74,12.61 -1.84,16.66 -5.34,0.68 -9.74,0.8 -15.15,0.8 -4.95,0 -10,-1.19 -14.37,-0.32 -1.28,0.6 1.46,1.13 -2.38,0.16l1.58 0.88c9.59,1.4 20.46,0.39 30.08,0.23 0.09,10.93 -0.47,20.34 13.54,19.64 1.77,-3.74 2.76,-2.61 2.81,-8.46l-1.57 0.13c-0.18,3.65 -0.44,4.62 -2.93,6.86 -7.89,0.15 -9.89,-5.42 -10.3,-12.26 -0.3,-5.11 0.39,-17.1 1.52,-22.06 4.72,1.55 11.98,6.18 16.08,9.47 2.64,2.12 4.65,5.21 4.75,8.64 0.16,6.21 -2.61,5.31 -6.34,7.18l3.2 0.41c4.81,-0.42 5.25,-6.57 4.38,-10.45 -1.01,-4.45 -4.13,-6.06 -6.86,-8.89 0.62,-4.01 1.76,-5.79 2.07,-10.48 2.24,-0.49 4.35,-1.41 5.71,-3.09l0.33 -2.1 -2.12 1.19c-2.04,4.07 -19.21,7.55 -11.31,-24.29 0.9,-3.64 3.4,-7.94 3.83,-10.77l-0.93 -0.11 -3.05 5.64 -6 -8.29c1.29,-27.09 -1.51,-0.83 -8.13,-31.77 -2.6,-5.76 4.88,-11.76 -4.59,-30.69 -5.64,-11.28 -23.6,-20.21 -36.38,-17 -7.89,-1.22 -23.17,14.33 -27.05,21.18 -5.51,9.69 -1.87,15.72 -1.61,25.15l-7.24 6.7 0 0 0 0z"/>
   <path class="fil2 str1" d="M115.13 80.28c0.34,2.23 -3.39,10.5 0.41,17.28 9.68,17.25 6.81,18.37 -0.97,29.12 -4.99,6.88 6.6,1.68 6.86,3.7 1.11,8.63 18.38,0.6 13.93,-10.41 3.22,-2.31 13.72,8 13.72,7.45 0,-16 -0.58,-21.1 -7.01,-35.9 -4.62,-10.64 6.25,-10.68 -4.49,-25.71 -6.02,-8.43 3.84,-13.13 -12.85,-16.52 -5.23,-1.07 -0.52,-8.33 -15.14,-4.99 -9.81,2.24 -19.06,-4.82 -19.2,3.49 -0.06,2.97 -14.25,-3.94 -14.25,4.05 0,9.66 4.86,1.39 -4.52,10.47 -0.29,0.29 -4.09,19.07 -2.68,22.48 3.77,9.12 -7.76,11.51 -7.76,22.1 0,12.71 -3.48,-6.48 5.27,-8.23 9.74,-1.95 3.82,-24.49 8.7,-32.07 1.16,-1.8 0.62,2.37 0.62,6.6 0,11.18 1.58,24.96 -7.86,32.44 -1.66,1.32 -5.77,16.79 1.13,19.18 0.91,0.31 3.01,5.34 6.78,4.92 3.79,-0.43 6.15,-4.64 9.89,-6.55 3.76,-1.91 8.89,-1.54 8.79,-1.74 -1.89,-3.89 5.42,-2.58 6.88,-7.88 0.31,-1.14 0.35,-2.6 -0.03,-4.47 -0.02,-0.12 4.61,-1.79 6.56,-3.52 1.31,-1.14 -0.44,-3.32 -0.96,-2.63 -0.94,1.26 -6.67,2.15 -12.95,-0.73 -5.47,-2.52 -2.74,-2.87 -4.05,-4.67 -2.22,-3.05 -5.98,-7.61 -6.36,-19.11 -0.54,-16.21 -0.06,-4.91 3.46,0.28 3.62,5.32 2.65,-5.31 2.8,-5.27 0.21,0.04 17.1,8.99 12.29,-2.56 0.16,1.2 11.77,8.39 12.99,9.4z"/>
   <g>
    <path class="fil3" d="M104.11 133.25l-0.06 1.8c5.34,-4.48 15.61,-1.3 13.15,6.54 -1.12,3.54 -3.93,4.57 -6.2,6.18 -1.57,1.11 -5.84,4.73 -6.64,4.97 2.13,5.59 4.21,0.06 4.73,10.94 6.1,-0.19 2.33,-1.02 6.43,-3.53 1.68,-1.03 5.76,-1.39 7.89,-1.83 12.05,-2.44 9.15,-5.05 13.58,-6.57 -0.62,5.29 -6.62,6.62 -11.15,7.72 -6.38,1.56 -9.13,0.17 -12.26,5.78l-10.48 0.32 -1.01 3.98c3.48,-0.46 5.47,-0.69 8.12,1.17 -1.8,1.28 2.44,1.31 -2.77,0.69 -0.6,-0.07 -0.78,-0.45 -2.21,-0.51 -1.57,-0.06 -2.45,0.44 -3.9,1.18l0.24 3.14c2.43,0.3 4.45,0.02 6.17,1.43 -1.93,1.64 -2.98,0.53 -5.97,0.31 0.57,5.08 0,3.61 3,4.77 1.67,0.65 1.07,-0.02 1.72,1.44 -1.77,0.65 -2.16,-0.04 -4.56,-0.1l0.62 3.13 9.88 0.27c4.37,-0.87 9.41,0.33 14.37,0.33 5.41,0 9.81,-0.13 15.15,-0.81 0.09,-4.05 0.17,-13.41 1.84,-16.66 3.18,0.32 9.75,5.82 14.35,6.95 1.49,-2.2 2.23,-5.11 2.19,-8.11 -2.84,-1.41 -6.22,-1.72 -7.73,-5.52 -4.79,-11.99 4.61,-23.79 -2.22,-32.11 -2.45,2.48 -5.92,9.09 -8.75,10.47 0.47,-4.36 4.95,-7.44 7.06,-11.23 -0.98,-3.09 -10.64,-9.48 -13.33,-9.81 -1.38,3.47 0.76,13.27 -12.89,13.38 -0.52,-2.7 0.09,-1.61 -0.95,-3.25 -2.97,1.49 -6.44,2.5 -9.13,0.91 -1.19,-2.53 2.91,-8.99 4.42,-11.98 4.88,-9.72 4.13,-8.03 2.79,-12.82l-3.44 0.48c1.2,1.68 2.93,4.35 2.1,5.99 -2.51,-1.4 -2.21,-4.27 -4.56,-5.59l-1.99 0.84c1.02,2.6 1.84,2.87 2.28,5.61 -2.49,-0.9 -2.75,-2.31 -4.17,-4.82l-3.22 0.6c0.98,2.86 2.86,3.59 1.84,5.88 -1.49,-0.83 -1.45,-1.16 -2.26,-2.84 -1.38,-2.88 -0.19,-2.05 -3.1,-2.05l2.39 6.2 -2.91 -1.15c-2.29,2.25 -7.45,5.06 -7.58,8.25 7.26,1.03 10.14,0.62 10.31,9.58l-1.18 0.06 0 0 0 0z"/>
    <path class="fil4" d="M37.93 186.82c-7.68,1.84 -8.49,-6.04 -5.98,-10.98 0.59,-1.17 7.54,-9.32 8.67,-10.35 2.18,2.29 8.17,11.77 5.25,17.68 -1.38,2.77 -1.7,3.47 -5.14,2.88l-0.29 -7.9c-3.63,1.12 0.14,3.88 -2.51,8.67l0 0zm28.59 -8.86c-1.96,0.92 -8.15,4.61 -9.56,4.52 -4.06,-0.25 -5.07,-5.51 -4.38,-8.72 1.06,-4.95 4.58,-16.08 6.74,-20.76 5,2.34 1.87,2.19 7.79,7.32l-0.59 17.64 0 0 0 0zm1.77 -19.25c-1.45,-1.52 -1.28,-0.43 -0.11,-3.46l1.86 -3.5 3.06 1.39c-1.14,1.88 -1.56,1.16 -2.84,2.87 -1.32,1.74 0.31,0.98 -1.97,2.7l0 0zm-46.69 -2.65l-0.3 2.36 -0.97 -1.57 -2.07 -4.34 3.07 0.36c0.19,0.51 0.2,-0.21 0.39,1.55 0.03,0.24 -0.09,1.31 -0.12,1.64l0 0zm8.49 19.07c-3.88,-0.93 -4.33,-1.72 -5.89,-5.62 -2.53,-6.29 -0.54,-24.85 2.12,-29.8 1.42,0.97 4,2.21 5.69,3.08 10.31,5.23 -1.83,12.68 12.77,15.19 1.61,2.47 3.23,5.2 3.42,8.4l-3.01 2c-1.87,-1.5 -0.88,-0.87 -2.05,-2.75 -1.04,-1.67 -1.26,-1.62 -2.57,-2.49l-3.25 1.83c-2.67,-2.92 -5.05,-10.04 -6.15,-14.18 -0.7,-2.63 -0.15,-3.23 -2.3,-4.25 -1.67,5.21 6.95,18.93 7.74,20.93l-6.52 7.66 0 0zm-22.77 -17.82c-4.53,-3.38 -4.29,-6.3 -4.23,-12 0.03,-2.56 0.82,-12.3 1.51,-14.47 1.84,-0.46 22.88,5.73 17.06,20.1l-4.54 -0.3c-2.2,-2.72 -0.94,-2.93 -4.14,-3.68 0.83,3 1.75,2.57 2.21,5.56 -1.56,3.29 -4.23,4.73 -7.87,4.79l0 0 0 0zm41.72 -2.37c-5.1,1.1 -10.01,2.37 -10.59,-4.52 -0.43,-5.08 0.65,-8.29 3.72,-12.05 2.63,-3.21 12.88,-16.38 15.43,-18.17 2.54,2.76 4.71,9.5 5.36,13.35 0,0.01 -7.28,13.16 4.86,18.11l-2.21 4.58c-8.6,-10.05 -7.48,-3.04 -10.66,2.58 -5.1,-2.46 -2.39,-5.92 -4.57,-8.37 -1.79,1.89 -0.76,1.89 -1.34,4.49l0 0 0 0zm-31.27 -26.02c-4.34,-4.4 -1.04,-16.62 1.37,-21.8 3.93,2.42 5.43,2.54 8.62,6.67 1.47,1.91 4.4,8.94 4.2,11.01 -4.44,1.17 -2.69,-0.91 -6.36,-1.62 -2.94,2.85 -2.41,5.72 -7.83,5.74l0 0 0 0zm26.32 -3.65l3.57 3.06c-1.27,2.36 -4.12,5.31 -5.93,7.65 -1.98,2.58 -3.62,6.42 -5.03,8.03 -3.37,-1.77 -5.01,-3.33 -6.01,-6.95 -0.9,-3.25 -2.36,-6.25 -3.13,-9.3l-0.58 -2.02c2.08,0.29 0.56,-0.12 1.14,0.93 2.52,0.81 4.07,0.64 5.81,-1.39 2.07,1.56 5.52,1.65 8.11,1.09 0.28,-1.67 0.31,-1.01 -0.09,-1.69 -20.27,1.99 -3.42,-28.06 0.85,-29.82l7.92 14.88c3.2,7.18 3.64,10.65 -0.96,16.93 -6.96,-1.43 -4.03,-11.27 -7.78,-14.84 -0.89,1.37 -0.68,-1.59 -0.72,2l1.26 4.81c0.61,2.25 1.09,4.34 1.57,6.63l0 0 0 0zm5.84 -30.4c-1.03,-6.27 3.94,-10.03 9.39,-11.33 0.58,5 4.46,11.16 0.88,15.17 -2.61,0.06 -2.69,-0.37 -3.91,-2.58 -2.58,-0.36 -4.65,-0.28 -6.36,-1.26zm1.25 10.42c-0.75,1.14 1.39,1.46 -0.91,0.92l-0.38 -1.72c-1.06,-3.55 -4.6,-10.09 -8.08,-11.44 -5.01,2.68 -9.65,15.28 -10.99,20.81l-0.5 0.92 -1.22 -1.42c-1.25,-3.4 -6.77,-7.74 -10.68,-8.03 -5.57,5.83 -8.82,36 6.78,21.95l4.2 11.51 -3.82 -2.03 -1.17 2.69 -0.9 1.33 -0.63 -0.86c-3.9,-3.37 -4.74,-6 -10.11,-8.29l-2.52 -1.34 -5.43 -2.28 -2.06 1.77 0 26.07c2.72,2 3.38,4.16 7.57,2.99 2.86,-0.79 4.36,-3.66 6.71,-4.2 5.11,7.73 3.64,8.73 4.58,12.97 1.48,6.7 4.03,6.51 7.77,9.86 -1.8,13.16 5.11,11.02 9.43,11.31 0.18,2.58 -0.25,5.06 1.15,6.65 1.56,-1.84 0.87,-4.54 0.64,-7.19 2.2,-0.13 5.54,0.15 7.53,-5.36 1.53,-4.23 -0.42,-7.26 -1.69,-10.99 -0.82,-1.35 -1.01,1.79 -0.69,-1.88l1.66 -0.56 2.55 -2.48c0.36,-4.3 -1.19,-4.76 -2.63,-8.55 -0.85,-0.93 -0.83,1.17 -0.7,-1.16l1.51 -0.52 2.21 -0.33 3.36 3.65 1.25 1.05 -0.83 1.44 -0.3 0.9 -1.42 3.37c-2.32,10.86 -4.21,9.01 2.75,17.34 -3.62,4.52 -5.64,5.31 -4.09,12.29l1.26 2.78c3.08,2.21 6.78,2.84 8.56,-0.4 -3.4,-0.25 -2.88,0.83 -6.57,-0.22 -3.61,-4.97 -1.52,-11.09 3.32,-14.04 2.42,-1.47 12.58,-6.52 14.91,-7.21 2.42,3.18 2.58,10.65 2.42,14.96 -0.2,5.49 -0.32,11.01 -6.94,11.33 -1.1,-0.92 -0.6,-0.59 -1.38,-1.45 -1.25,-1.35 -0.45,-0.97 -2.22,-1.69 0.03,2.93 0.85,3.15 2.93,4.83 8.3,0.52 8.38,-5.69 9.51,-11.69 8.18,-1.82 8.48,3.91 31.05,-2.52 -0.17,-0.17 -0.32,-0.4 -0.43,-0.56 -0.1,-0.14 -0.29,-0.19 -0.36,-0.51 -0.07,-0.27 -0.18,-0.32 -0.29,-0.45 -7.11,2.63 -22.83,4.48 -29.98,1.55 -0.86,-7.42 0.39,-20.84 -8.5,-13.65 -0.78,-3.64 -0.04,-7.66 0.07,-11.36 0.14,-4.94 0.38,-4.27 2.93,-9.09l5.02 -3.69c-2.75,-4.37 -10.25,-1.46 -12.59,-7.08 -2.39,-5.72 -1.49,-10.73 3.58,-14.18 6.44,0 11.01,1.49 11.36,8.81 2.09,-0.6 0.75,0.62 1.96,-1.04l-3.38 -7.62 0.03 -0.52 -1.71 -0.55c-1.96,0.1 -4.2,-0.4 -6.3,-0.5 -3.75,-0.19 -1.87,0.16 -5.11,1 -1.09,-3.94 -2.75,-13.43 -7.42,-13.8l-1.62 1.84 -0.34 -2.51 -1.89 -6.66c-1.22,-1.8 -1.81,-2.16 -0.28,-3.7 0.26,-3.18 1.75,-4.6 2.7,-7.59 4.1,1.33 3.9,2.63 7.67,-0.43 0.17,-5.86 0.58,-9.01 -2.7,-16.98 -3.88,-0.16 -5.81,1.44 -8.86,3.83 -4.51,3.51 -5.89,10.01 0.28,11.92 2.19,0.69 -1.01,-0.46 1.12,0.33l0.98 0.51c-1.05,2.32 -2.42,4.28 -2.69,6.84l0 0 0 0z"/>
    <path class="fil5" d="M180.4 158.99c1.43,1.84 1.62,12.56 0.52,14.66 -1.61,-1.34 -1.14,-8.37 -1.17,-11.68 -0.02,-2.89 -0.4,-1.26 0.65,-2.98l0 0 0 0zm-2.41 -45.97c1.34,0.09 0.35,-0.28 0.82,0.32 -19.19,27.04 -4.56,16.36 -0.19,36.53 -3.42,7.83 -12.3,20.63 -7.46,29.37l5.89 0.11c2.12,-1.05 0.57,-0.54 3.25,-0.83 -0.13,-0.16 -0.37,-0.6 -0.44,-0.47 -0.66,1.22 -1.25,-1.88 -1.37,-2.73 1.77,0.43 9.56,10.04 13.2,4.97 2.37,-5.37 -0.43,-15.76 -3.59,-20.51 -1.49,-2.24 -2.32,-5.98 -3.76,-8.68 -1.89,-3.53 -4.87,-4.78 -5.67,-8.09 1.55,0.62 2.23,0.54 2.57,1.86 0.47,-5.36 -1.18,-12.9 -1.11,-13.96 0.23,-3.26 0.12,-1.15 0.86,-2.22 2.29,4.18 1.61,13.08 2.44,18.25 2.77,3.51 8.94,5.69 11.13,0.8 2.51,-5.57 -9,-28.83 -11.95,-32.14 -1.71,-1.94 -2.7,-3.54 -2.54,-6.11 -1.11,1.19 -1.21,1.8 -2.08,3.53l0 0 0 0z"/>
    <path class="fil4" d="M201.37 163.8c-0.59,-0.83 1.02,-1.44 -1.39,-0.22l-1.82 1.05c-3.65,-1.13 -2.08,-1.27 -4.72,-3.42 -0.03,-13.79 21.53,-19.51 22.89,-19.32 1.34,8.78 0.7,17.79 -1.56,26.18 -2.43,9.02 -12.23,7.8 -15.21,-1.88l1.81 -2.39 0 0 0 0zm-18.88 -63.11l-0.7 -1.43c-2.23,1.04 -0.99,0.93 -3.24,0.69l-1.54 -2.24c0.47,-4.53 4.53,-6.58 6.07,-10.87 3.05,1.37 3.34,3.41 4.83,6.52 1.76,3.68 2.83,3.62 2.35,8.4l-3.61 0.94 -3.19 -2.33 -1.35 11.05c-1.42,-1.52 -0.4,-1.23 -2.04,-1.93 -0.16,2.57 0.83,4.17 2.54,6.1 2.95,3.32 14.46,26.58 11.95,32.15 -2.19,4.89 -8.36,2.71 -11.13,-0.8 -0.83,-5.17 -0.15,-14.07 -2.44,-18.25 -0.74,1.07 -0.63,-1.04 -0.86,2.22 -0.07,1.06 1.58,8.6 1.11,13.96 -0.34,-1.32 -1.02,-1.24 -2.57,-1.86 0.8,3.31 3.78,4.56 5.67,8.09 1.44,2.7 2.27,6.44 3.76,8.68 3.16,4.75 5.96,15.14 3.59,20.51 -3.64,5.07 -11.43,-4.54 -13.2,-4.97 0.12,0.85 0.71,3.95 1.37,2.72 0.07,-0.12 0.31,0.32 0.44,0.48 0.42,1.32 0.27,0.82 1.93,2.09 11.57,8.93 12.46,-5.84 12.51,-5.94 0.74,-1.58 2.45,-4.69 3.45,-6.28 2.15,3.07 3.48,6.69 8.23,7.23 5.21,0.6 8.54,-1.99 9.89,-6.71 1.76,-6.11 3.88,-23.17 1.11,-28.68 -4.59,-1.19 -9.27,3.7 -13.77,4.03l-1.49 -0.18c-0.02,-0.27 0.16,-0.34 0.22,-0.52l0.6 -6.43c3.02,0.24 2.39,2.77 7.59,0.51 5.34,-5.06 -1.54,-21.82 -5.26,-26.89 -0.57,0.55 -1.75,-0.25 -0.05,3.62 1.65,3.77 3.41,6.43 4.51,9.92 1.67,5.31 3.24,12.56 -4.07,12.49l-2.81 -3.23c1.12,-3.69 1.39,-4.58 1.34,-8.77 -1.66,1.26 -0.85,-1.39 -1.82,2.36 -0.26,1.04 0.13,4.17 -1.03,6.6 -7.76,2.47 -5.63,-5.89 -4.08,-9.94 1.08,-2.81 4.81,-7.84 6.68,-10.42 -0.79,-0.8 1.62,-1.11 -1.44,-0.49 -1.84,1.36 -6.16,8.54 -7.01,11.04 -2.18,6.48 -3.08,13.17 5.87,11.46l-0.97 10.58c-3.35,4.79 -14.7,12.52 -5.09,19.38l2.27 0.93 -1.14 1.24 -2.27 4.62c-1.42,-3.17 -1.48,-7.05 -2.96,-10.28 -1.5,-3.28 -3,-5.55 -4.31,-9.16l-0.67 -1.33c2.84,-0.44 0.6,-0.27 1.5,0.54 14.16,3.07 7.13,-15.35 4.42,-21.65 -5.4,-12.59 -11.01,-15.19 -7.01,-26.43 2.4,1.26 5.32,0.47 6.64,-2 1.16,-5.25 -3.53,-13.61 -7.7,-17.07 -2.54,1.07 -6.35,6.73 -7.98,9.37 -2.44,3.96 0.81,10.4 6.36,6.55l0 0 0 0.01z"/>
    <path class="fil6" d="M162.12 140.94c2.72,1.92 5.65,13.75 5.86,17.26 -2.93,-0.83 -2.86,-5.24 -3.86,-8.43 -0.76,-2.43 -3.22,-7.13 -2,-8.83l0 0zm-4.55 -12.64l0.93 0.11c-0.43,2.83 -2.93,7.13 -3.83,10.78 -7.9,31.83 9.26,28.35 11.31,24.28l1.27 -1.65 1.45 0.8 1.41 -0.38 -0.16 2 6.81 -15.01c-0.01,-3.27 -10.89,-17.8 -12.41,-19.29 -2.01,-1.96 -3.78,-2.63 -5.53,-4.87 0.61,-0.89 -1.43,-1.63 1.27,-0.36 -0.63,-1.21 1.07,-0.73 -1.29,-1.03l-1.23 4.62 0 0z"/>
    <path class="fil7" d="M51.78 149.15c-0.92,-1.82 1.01,-4.97 1.72,-7.23 0.59,-1.89 1.78,-6.57 3.32,-7.36 1.61,2.23 -2.49,13.27 -5.04,14.59l0 0zm-2.74 5.79c0.58,-2.6 -0.45,-2.6 1.34,-4.49 2.18,2.45 -0.53,5.91 4.57,8.37 3.18,-5.62 2.06,-12.63 10.66,-2.58l2.21 -4.58c-12.14,-4.95 -4.87,-18.1 -4.86,-18.11 -0.65,-3.85 -2.82,-10.59 -5.36,-13.35 -2.55,1.79 -12.8,14.96 -15.43,18.17 -3.07,3.76 -4.15,6.97 -3.72,12.05 0.58,6.89 5.49,5.62 10.59,4.52l0 0 0 0z"/>
    <path class="fil8" d="M98.16 87.18l1.13 7.02c-2.1,-0.82 -2.25,-3.39 -2.37,-5.67 -1.41,-1.93 -1.34,-1.44 -0.09,-3.3 1.5,0.8 0.68,-0.69 1.33,1.95l0 0zm-13.32 -0.05c1.53,0.69 0.65,0.65 2.31,0.11l4.61 -0.31 -0.88 1.35c0.73,1.57 0.11,0.36 0.8,1.44 3.14,4.98 -0.31,4.12 -1.73,7.82 0.91,4 6.14,6.11 10.13,6.41 5.42,0.4 8.68,-1.67 12.99,-4.39l-0.7 -4.59c-2.55,-1.83 -2.85,-1.74 -4.66,-4.44 0.01,-3.26 1.49,-2.8 -0.03,-3.29 -2.66,-0.06 -2.61,0.53 -3.78,-1.34 1.57,-0.99 3.09,-0.71 5.48,-1.01l0.32 1.37c1.21,0.54 1.43,-0.3 0.84,0.53 0.52,-3.38 0.92,-5.89 -0.06,-9.31l-5.84 -3.43 -1.13 0.31 0.2 2.19c-4.91,1.33 -6.39,1.27 -11.07,-0.05 -1.97,-0.26 0.48,-0.37 -1.16,0.14 -0.1,0.02 -0.38,0.41 -0.45,0.27 -0.08,-0.17 -0.31,0.22 -0.46,0.34l-4.01 -0.04 -1.45 -3.69c-0.05,-0.08 -0.77,-1.06 -0.91,-1.21 -0.08,-0.09 -0.34,-0.13 -0.39,-0.37 -0.06,-0.25 -0.28,-0.23 -0.43,-0.35 0,7.44 0.29,8.44 1.45,15.54l0 0 0.01 0z"/>
    <path class="fil9" d="M89.16 187.2c2.34,-0.29 2.47,-0.15 2.96,2.51 -3.01,0.62 -1.96,-0.74 -2.96,-2.51zm-16.27 -23.29c1.74,1 2.01,1.68 2.48,3.7 -2.69,-0.31 -2.95,-0.54 -2.48,-3.7zm33.96 25.7c1.3,-1.25 0.43,0.07 0.91,-1.53l-6.46 -0.28 -1.11 -3.05c-3.2,-0.36 -12.15,-1.14 -13.48,-4.53 -0.94,-2.39 1.09,-0.38 -1.58,-4.23l0.04 -6.72c2.15,-2.03 1.03,-2.1 2.34,-4.4 4.03,-0.61 5.43,0.54 9.27,0.73l-0.42 -4.27 -14.33 0.49c0.32,4.71 -0.04,24.78 1.25,26.79l-1.91 0.5 -0.86 -27.15c-2.36,-1.04 -6.84,-1.51 -9.58,-1.98 1.37,-2.38 -0.85,-0.5 2.11,-1.3 -2.79,-1.25 -0.82,0.25 -1.67,-1.62 -2.55,4.81 -2.79,4.14 -2.93,9.09 -0.11,3.7 -0.84,7.72 -0.07,11.35 8.89,-7.18 7.64,6.24 8.5,13.66 7.15,2.93 22.87,1.08 29.98,-1.56l0 0.01 0 0z"/>
    <path class="fil5" d="M199.98 163.58c1.04,-1.6 1.27,-2.72 3.73,-2.97 0.17,2.23 -0.08,1.9 -2.34,3.19l-1.81 2.39c2.98,9.68 12.78,10.9 15.21,1.88 2.26,-8.39 2.9,-17.4 1.56,-26.18 -1.36,-0.19 -22.92,5.53 -22.89,19.32 2.64,2.15 1.07,2.29 4.72,3.42l1.82 -1.05 0 0 0 0z"/>
    <path class="fil6" d="M150.65 180.81l4.98 11.01c-1.9,-0.72 -3.24,-2.55 -4.14,-4.62 -1.72,-3.95 -1.98,-4.78 -0.84,-6.39zm7.41 18.11c1.1,-0.91 0.45,-0.52 2.05,-0.93 2.14,-0.55 0.57,0.63 2.35,-0.7l-3.19 -0.4c3.73,-1.88 6.5,-0.98 6.34,-7.19 -0.1,-3.43 -2.11,-6.52 -4.75,-8.64 -4.1,-3.29 -11.36,-7.92 -16.08,-9.47 -1.13,4.96 -1.82,16.95 -1.52,22.06 0.4,6.84 2.4,12.41 10.3,12.26 2.49,-2.24 2.75,-3.21 2.93,-6.86l1.57 -0.13 0 0 0 0z"/>
    <path class="fil10" d="M95.83 151.05c1.7,0.68 2.41,0.58 1.59,3.28 -1.93,-0.86 -1.47,-0.56 -1.59,-3.28zm-6.51 -7.08c2.83,2.1 5.8,7.35 5.25,11.02l4.26 0 0.65 -1.18c0.39,-1.95 0.21,-2.45 1.78,-3.68 0.94,1.41 0.1,2.75 -0.71,4.71l-0.17 0.84 2.3 -0.46 0 -1.04c-0.45,-0.28 -1.07,1.23 -0.2,-0.67 0.09,-0.19 0.56,-0.78 0.73,-0.98 0.62,-0.75 1.27,-1.44 1.93,-2.13 1.61,-1.72 2.29,-2.17 4.33,-3.49 13.2,-8.53 3.41,-15.77 -5.64,-10.19 -4.27,2.62 -3.59,7.46 -5.76,10.83 -0.57,-0.89 -1.27,-0.42 -0.4,-3.8 0.96,-3.73 2.63,-7.09 6.38,-8.7l0.06 -1.8c-1.05,-3.95 -0.2,-4.32 -3.33,-7.41 -6.21,-0.75 -8.48,-0.12 -11.85,5.17 -3.91,6.14 0.01,8.71 0.39,12.96l0 0 0 0z"/>
    <path class="fil5" d="M30.09 175.13l6.52 -7.66c-0.79,-2 -9.41,-15.72 -7.74,-20.93 2.15,1.02 1.6,1.62 2.3,4.25 1.1,4.14 3.48,11.26 6.15,14.18l3.25 -1.83c1.31,0.87 1.53,0.82 2.57,2.49 1.17,1.88 0.18,1.24 2.05,2.75l3.01 -2c-0.19,-3.2 -1.81,-5.93 -3.41,-8.4 -14.61,-2.51 -2.47,-9.96 -12.77,-15.19 -1.7,-0.87 -4.28,-2.11 -5.69,-3.08 -2.67,4.95 -4.66,23.51 -2.13,29.8 1.56,3.9 2.01,4.69 5.89,5.62l0 0z"/>
    <path class="fil6" d="M42.04 126.37l2.05 -1.1c-0.48,-2.29 -0.96,-4.38 -1.57,-6.63l-1.26 -4.81c0.04,-3.59 -0.17,-0.63 0.72,-2 3.75,3.57 0.82,13.42 7.78,14.84 4.6,-6.28 4.16,-9.75 0.97,-16.93l-7.93 -14.88c-4.27,1.76 -21.12,31.81 -0.84,29.82 0.39,0.68 0.36,0.02 0.08,1.69l0 0z"/>
    <path class="fil11" d="M96.61 167.37l3.76 0.33c-0.04,3.02 -0.89,4.24 -0.47,7.67 0.34,2.74 1.01,4.56 0.33,7.65l-3.38 -0.26c-3.64,-0.81 -6.41,-0.56 -8.59,-3.59 4.98,-0.84 5.03,1.69 7.98,0.02 -3.17,-2.64 -7.54,-0.5 -9.57,-4.9l4.91 0.84 4.15 0.1 -1.98 -1.56c-3.47,0.17 -6.19,-0.45 -7.16,-3.88 4.56,0.65 6.09,2.27 8.27,0.36 -2.77,-1.54 -4.68,-0.08 -5.97,-3.26 1.99,-0.84 5.2,0.4 7.72,0.48l0 0 0 0zm10.65 -7.71l0.34 4.33c-2.13,-0.31 -2.1,-0.06 -3.77,-0.19 -2.96,-0.23 -0.5,0.34 -2.39,-0.68 -0.64,1.15 -0.42,0.03 0.06,2.34l-3 0.24 -0.26 -4.42 9.02 -1.62 0 0zm-2.9 -6.92c-0.31,1.75 -2.3,-2.92 0.15,2.35l-1.83 -0.91 0 1.04 3.6 2.46c-3.47,2.26 -12.92,2.49 -17.59,1.97l1.88 -2.46c0.43,-1.94 0.8,-1.5 -1.21,-1.24l-1.51 1.71 -0.87 2.6c-2.25,0.55 -4.09,0.25 -6.08,-0.54l-7.86 -1.04c-2.96,0.8 -0.74,-1.08 -2.11,1.3 2.74,0.47 7.22,0.94 9.58,1.98l0.86 27.15 1.91 -0.5c-1.29,-2.01 -0.93,-22.08 -1.25,-26.79l14.33 -0.49 0.42 4.27c-3.84,-0.19 -5.24,-1.34 -9.27,-0.73 -1.31,2.3 -0.19,2.37 -2.34,4.4l-0.04 6.72c2.67,3.85 0.64,1.84 1.58,4.23 1.33,3.39 10.28,4.17 13.48,4.53l1.11 3.05 6.46 0.28c-0.48,1.6 0.39,0.28 -0.91,1.53 0.11,0.13 0.22,0.17 0.29,0.45 0.07,0.32 0.26,0.37 0.36,0.51 0.11,0.15 0.26,0.39 0.43,0.56l1.39 -0.55c0.08,-0.17 0.15,-0.62 0.19,-0.52 0.03,0.09 -0.51,-0.58 2.12,-2.56l-1.58 -0.87c3.84,0.97 1.09,0.43 2.38,-0.16l-9.88 -0.27 -0.62 -3.13c2.4,0.06 2.79,0.75 4.56,0.1 -0.65,-1.46 -0.05,-0.79 -1.72,-1.44 -3,-1.16 -2.43,0.31 -3,-4.77 2.99,0.22 4.04,1.33 5.97,-0.31 -1.72,-1.42 -3.74,-1.13 -6.17,-1.43l-0.24 -3.14c1.44,-0.74 2.33,-1.24 3.9,-1.18 1.43,0.06 1.61,0.44 2.21,0.5 5.21,0.63 0.97,0.6 2.77,-0.68 -2.65,-1.86 -4.64,-1.63 -8.12,-1.17l1.01 -3.98 10.48 -0.32c3.13,-5.61 5.88,-4.22 12.26,-5.78 4.53,-1.1 10.53,-2.43 11.15,-7.73 -4.43,1.53 -1.53,4.14 -13.58,6.58 -2.13,0.44 -6.21,0.79 -7.89,1.83 -4.1,2.51 -0.33,3.34 -6.43,3.53 -0.52,-10.88 -2.6,-5.35 -4.73,-10.94l0 0z"/>
    <path class="fil5" d="M63.33 198.97c0.36,-2.91 3.5,-10.11 6,-11.14 0.79,1.65 -1.76,5.38 -3.49,8.82 -1.37,2.73 -0.54,1.8 -2.51,2.32l0 0zm-2.43 -0.14c1.37,-0.4 1.25,-0.35 2.43,0.14 0.74,0.67 0.86,0.69 1.11,1.54 1.77,0.72 0.97,0.33 2.22,1.69 0.78,0.86 0.28,0.53 1.38,1.45 6.62,-0.33 6.74,-5.84 6.94,-11.33 0.16,-4.31 0,-11.78 -2.42,-14.96 -2.33,0.69 -12.49,5.74 -14.91,7.21 -4.84,2.95 -6.93,9.07 -3.32,14.04 3.69,1.05 3.17,-0.03 6.57,0.22l0 0z"/>
    <path class="fil5" d="M7.92 135.1c1.73,1.22 4.51,5.57 4.28,7.85 -2.02,-0.25 -2.03,-1.41 -3.12,-3.24 -4.01,-6.77 -1.52,-3.86 -1.16,-4.61zm-0.6 22.21c3.64,-0.06 6.31,-1.5 7.87,-4.79 -0.46,-2.99 -1.38,-2.56 -2.22,-5.56 3.21,0.75 1.95,0.96 4.15,3.68l4.54 0.3c5.82,-14.37 -15.22,-20.56 -17.06,-20.1 -0.69,2.17 -1.48,11.91 -1.51,14.47 -0.06,5.7 -0.3,8.62 4.23,12l0 0 0 0z"/>
    <path class="fil7" d="M60.29 167.63c2.49,1.13 4.07,8.18 3.57,10.73 -2.35,-0.98 -3.95,-8.28 -3.57,-10.73zm6.23 10.33l0.59 -17.64c-5.92,-5.13 -2.79,-4.98 -7.79,-7.32 -2.16,4.68 -5.68,15.81 -6.74,20.75 -0.69,3.22 0.32,8.48 4.38,8.73 1.41,0.09 7.6,-3.6 9.56,-4.52l0 0z"/>
    <path class="fil12" d="M76.39 153.36l1 -0.1 -2.17 -3.49c3.01,0.32 3.04,0.27 3.74,3.46l3.31 -0.46 0.14 -2.08c-0.11,-1.3 0.3,-1.07 -0.8,-1.07 -0.44,2.16 0.68,0.79 -1.16,1.65 -0.69,-1.98 0.13,-1.32 0.33,-3.95 0.14,-1.89 -0.36,-3.73 -0.75,-5.56l-0.74 0.46 -0.55 -1.3c-0.35,-7.32 -4.92,-8.81 -11.36,-8.81 -5.07,3.45 -5.97,8.46 -3.58,14.18 2.34,5.61 9.84,2.71 12.59,7.07l0 0 0 0z"/>
    <path class="fil13" d="M167.18 118.95c0.36,0.46 0.43,0.46 0.92,1.45 0.07,0.12 0.13,0.7 0.17,0.6 0.05,-0.11 0.1,0.42 0.14,0.64 1.19,6.16 0.38,2.09 -0.36,7.2l-0.77 1.65c-1.27,0.13 -0.91,0.39 -0.91,-0.98l-6.28 -4.8c-2.7,-1.27 -0.66,-0.53 -1.27,0.36 1.75,2.24 3.52,2.91 5.53,4.87 1.52,1.49 12.4,16.02 12.41,19.29l-6.81 15.01c-1.01,4.73 -2.44,6.05 -1.92,11.76 0.49,5.5 4.25,4.93 8.77,4.91l0.25 -1.56 -5.89 -0.11c-4.84,-8.74 4.04,-21.54 7.46,-29.37 -4.37,-20.17 -19,-9.49 0.19,-36.53 -0.47,-0.6 0.52,-0.23 -0.82,-0.32 -0.99,0.53 -1,0.39 -2.18,1.63 -0.85,0.88 -1.06,1.28 -1.74,2.24 -1.23,1.71 -2.04,2.82 -2.79,4.82 -0.89,0.92 1.19,1.84 -1.14,0.62l-0.38 -1.88 -1.94 -5.22c5.83,-0.44 3.9,-0.62 7.45,-3.58 -0.12,-5.08 -0.91,-5.79 -4.05,-9.45 -1.85,-2.13 -4.91,-5.11 -7.35,-5.75l-0.62 1.19c2.31,2 14.09,9.93 9,14.78 -2.31,2.19 -3.99,0.54 -6.21,-0.17 -1.58,2.05 -0.38,2.1 -2.67,2.98 -2.98,0.19 -3.47,-6.28 -3.33,-8.47 0.15,-2.35 1.03,-7.63 1.94,-10l-1.44 -0.43c-2.33,4.68 -3.73,16.06 0.89,20.26l5.04 0.01 0.71 2.35 0 0 0 0z"/>
    <path class="fil5" d="M37.93 186.82c2.65,-4.79 -1.12,-7.55 2.51,-8.67l0.29 7.9c3.44,0.59 3.76,-0.11 5.14,-2.88 2.92,-5.91 -3.07,-15.38 -5.25,-17.68 -1.13,1.03 -8.08,9.18 -8.67,10.35 -2.51,4.94 -1.7,12.82 5.98,10.98l0 0z"/>
    <path class="fil7" d="M202.54 112.89c3.06,-0.62 0.65,-0.31 1.44,0.49 -1.87,2.58 -5.6,7.61 -6.68,10.42 -1.55,4.05 -3.68,12.41 4.08,9.94 1.16,-2.43 0.77,-5.55 1.03,-6.6 0.97,-3.75 0.16,-1.1 1.82,-2.36 0.04,4.19 -0.22,5.08 -1.34,8.77l2.81 3.23c7.31,0.07 5.74,-7.18 4.07,-12.49 -1.1,-3.49 -2.86,-6.15 -4.52,-9.92 -1.69,-3.87 -0.51,-3.07 0.05,-3.62 -0.78,-0.65 1.13,-0.91 -1.22,-0.41l-1.54 2.55 0 0 0 0z"/>
    <path class="fil7" d="M23.43 116.15c1.77,6 0.63,3.95 0.21,4.7 -1.5,-1.35 -3.56,-6.99 -2.51,-8.65 2.06,1 1.66,1.78 2.3,3.95zm-5.66 12.77c5.42,-0.02 4.89,-2.89 7.83,-5.74 3.67,0.71 1.92,2.79 6.36,1.62 0.2,-2.07 -2.73,-9.1 -4.2,-11.01 -3.19,-4.13 -4.69,-4.25 -8.62,-6.67 -2.41,5.17 -5.71,17.4 -1.37,21.8l0 0 0 0z"/>
    <path class="fil10" d="M77.32 132.25l3.38 7.63c-1.21,1.65 0.13,0.44 -1.96,1.04l0.55 1.3 0.74 -0.46 1.47 0.28c1.42,2.08 1.21,3.61 1.28,6.34 2.48,-0.18 0.5,-0.17 1.4,0.66l-0.47 3.53c1.49,-0.36 0.79,0.2 1.71,-0.71l-0.18 -1.98 3.36 -4.09 0.27 -1.51c-3.25,-1.66 -3.56,-8.17 -2.61,-11.51 1.22,-4.35 5.71,-6.43 6.32,-8.74 -4.99,-3.69 -15.39,1.49 -15.26,8.22l0 0 0 0z"/>
    <path class="fil5" d="M163.87 96.45c-1.09,-1.6 -2.45,-0.6 -3.33,-0.12l1.44 0.44c-0.91,2.36 -1.79,7.64 -1.94,9.99 -0.14,2.19 0.35,8.67 3.33,8.47 2.29,-0.88 1.09,-0.93 2.67,-2.98 2.22,0.71 3.9,2.36 6.21,0.17 5.09,-4.84 -6.69,-12.78 -9,-14.78l0.62 -1.19 0 0z"/>
    <path class="fil5" d="M182.49 100.69l0.97 -0.32 3.19 2.34 3.61 -0.95c0.48,-4.78 -0.59,-4.72 -2.35,-8.4 -1.49,-3.11 -1.78,-5.15 -4.83,-6.52 -1.54,4.29 -5.6,6.34 -6.07,10.87l1.54 2.24c2.24,0.24 1.01,0.35 3.24,-0.69l0.7 1.43 0 0z"/>
    <path class="fil7" d="M49.93 94.87c1.71,0.98 3.78,0.9 6.36,1.26 1.22,2.21 1.3,2.64 3.91,2.58 3.58,-4.01 -0.3,-10.17 -0.88,-15.17 -5.45,1.3 -10.42,5.06 -9.39,11.33z"/>
    <path class="fil14" d="M83.71 152.57l-1.44 0.2 -3.31 0.46 -1.57 0.03 -1 0.1 -5.02 3.7c0.85,1.87 -1.12,0.37 1.67,1.62l7.86 1.04 4.77 0.26 2.18 -2.32 1.51 -1.71c1.58,-1.18 1.26,-0.56 2.08,-2.26l-6.02 -1.83c-0.92,0.91 -0.22,0.35 -1.71,0.71l0 0 0 0z"/>
    <path class="fil6" d="M8.48 174.47c0.25,2.98 -0.26,7.53 1.53,9.93 5.66,7.62 19.78,-8.68 -1.53,-9.93z"/>
    <path class="fil15" d="M93.75 173.67c3,0.13 1.65,-0.17 2.2,1.67 -1.93,1.23 -2.69,0.97 -4.37,-0.21l-4.91 -0.84c2.03,4.4 6.4,2.26 9.57,4.9 -2.95,1.67 -3,-0.86 -7.98,-0.02 2.18,3.03 4.95,2.78 8.59,3.59l1.43 -14.05 -1.67 -1.34c-2.52,-0.08 -5.73,-1.32 -7.72,-0.48 1.29,3.18 3.2,1.72 5.97,3.26 -2.18,1.9 -3.71,0.29 -8.27,-0.37 0.97,3.44 3.69,4.06 7.16,3.89l0 0 0 0z"/>
    <path class="fil16" d="M104.05 135.05c-3.75,1.61 -5.42,4.97 -6.38,8.7 -0.87,3.38 -0.18,2.91 0.4,3.8 2.17,-3.37 1.49,-8.21 5.76,-10.83 9.05,-5.58 18.84,1.66 5.64,10.19 -2.04,1.32 -2.72,1.77 -4.33,3.49 -0.66,0.69 -1.31,1.38 -1.93,2.13 -0.17,0.2 -0.64,0.79 -0.73,0.98 -0.87,1.9 -0.25,0.4 0.2,0.67l1.83 0.91c-2.45,-5.27 -0.46,-0.6 -0.15,-2.35 0.8,-0.24 5.07,-3.86 6.64,-4.97 2.27,-1.61 5.08,-2.64 6.2,-6.18 2.46,-7.84 -7.81,-11.02 -13.15,-6.54z"/>
    <path class="fil8" d="M124.49 75.42c-0.41,3.13 0.56,14.21 2.4,16.17 0.74,-0.31 0.79,1.08 2.32,-3.26 0.52,-1.47 1.06,-2.9 1.33,-4.41 0.9,-4.95 0.48,-5.92 -2.42,-9.56l-3.63 1.06z"/>
    <path class="fil13" d="M8.48 174.47c21.31,1.25 7.19,17.55 1.53,9.93 -1.79,-2.4 -1.28,-6.95 -1.53,-9.93zm-1.05 -0.97c-1.64,1.65 -0.54,10.06 1.25,12.25 2.93,3.59 7.9,3.13 10.88,-0.14 8.65,-9.51 -9.26,-15 -12.13,-12.11l0 0z"/>
    <path class="fil17" d="M90.57 157.19l-1.88 2.46c4.67,0.52 14.12,0.29 17.59,-1.97l-3.6 -2.46 -2.3 0.46 -1.56 -0.69 -4.25 0 -4 2.2 0 0 0 0z"/>
    <path class="fil18" d="M86.89 150.71c1.16,-1.74 1.41,-2.59 3.4,-3.23l2.29 4.8 -5.69 -1.57zm1.98 -6.43l-0.27 1.51 -3.36 4.09 0.18 1.98 6.02 1.83c-0.82,1.7 -0.5,1.08 -2.08,2.26 2.01,-0.26 1.64,-0.7 1.21,1.24l4 -2.2c0.55,-3.67 -2.42,-8.92 -5.25,-11.02l-0.45 0.31 0 0 0 0z"/>
    <path class="fil19" d="M89.95 97.54c1.43,-3.7 4.87,-2.84 1.73,-7.82 -0.69,-1.08 -0.07,0.13 -0.8,-1.44l-3.45 0.32 -0.28 -1.36c-1.66,0.54 -0.78,0.58 -2.31,-0.11 1.37,3.42 2.54,8.18 5.11,10.41l0 0 0 0z"/>
    <path class="fil19" d="M96.85 182.76l3.38 0.26c0.68,-3.09 0.01,-4.91 -0.33,-7.65 -0.42,-3.43 0.43,-4.65 0.47,-7.67l-3.76 -0.33 1.67 1.34 -1.43 14.05 0 0z"/>
    <path class="fil19" d="M126.89 91.59c-1.84,-1.96 -2.81,-13.04 -2.4,-16.17 -3.83,3.4 -1.55,10.83 -1.17,17.78l3.57 -1.61z"/>
    <path class="fil9" d="M98.24 161.28l0.26 4.42 2.99 -0.24c-0.47,-2.31 -0.69,-1.19 -0.05,-2.34 1.89,1.02 -0.57,0.45 2.39,0.68 1.67,0.13 1.64,-0.12 3.77,0.19l-0.34 -4.33 -9.02 1.62 0 0 0 0z"/>
    <path class="fil20" d="M167.98 158.2c-0.21,-3.51 -3.14,-15.34 -5.86,-17.26 -1.22,1.7 1.24,6.4 2,8.83 1,3.19 0.93,7.6 3.86,8.43l0 0z"/>
    <path class="fil19" d="M113.03 85.63c0.06,2.17 0.33,9.77 1.74,10.84 0.59,-2.53 -0.06,-1.94 2.41,-3.21 -0.35,-2.48 -0.34,-7.5 -1.81,-9.04l-0.28 1.43c-0.03,-0.03 0.78,-1 -2.06,-0.02l0 0z"/>
    <path class="fil19" d="M109.7 86.26l-2.02 0.98c1.52,0.49 0.04,0.03 0.03,3.29 1.81,2.7 2.11,2.61 4.66,4.44 -0.31,-3.02 -0.86,-6.06 -0.86,-9.08 0,-1.49 0.1,-3.07 0.1,-4.59 -0.01,-3 0.52,-2.52 -1.13,-3.82 0.98,3.42 0.58,5.93 0.06,9.31 0.59,-0.83 0.37,0.01 -0.84,-0.53z"/>
    <path class="fil20" d="M51.78 149.15c2.55,-1.32 6.65,-12.36 5.04,-14.59 -1.54,0.79 -2.73,5.47 -3.32,7.36 -0.71,2.26 -2.64,5.41 -1.72,7.23l0 0z"/>
    <path class="fil19" d="M107.91 105.57c2.43,2.54 0.69,0.23 8.68,-0.42l-2.09 -4.28c-2.3,0.91 -5.79,2.68 -6.59,4.7z"/>
    <path class="fil4" d="M180.92 173.65c1.1,-2.1 0.91,-12.82 -0.52,-14.66 -1.05,1.72 -0.67,0.09 -0.65,2.98 0.03,3.31 -0.44,10.34 1.17,11.68l0 0 0 0z"/>
    <path class="fil21" d="M63.33 198.97c1.97,-0.52 1.14,0.41 2.51,-2.32 1.73,-3.44 4.28,-7.17 3.49,-8.82 -2.5,1.03 -5.64,8.23 -6,11.14l0 0z"/>
    <path class="fil22" d="M60.29 167.63c-0.38,2.45 1.22,9.75 3.57,10.73 0.5,-2.55 -1.08,-9.6 -3.57,-10.73z"/>
    <path class="fil21" d="M155.63 191.82l-4.98 -11.01c-1.14,1.61 -0.88,2.44 0.84,6.39 0.9,2.07 2.24,3.9 4.14,4.62z"/>
    <path class="fil4" d="M12.2 142.95c0.23,-2.28 -2.55,-6.63 -4.28,-7.85 -0.36,0.75 -2.85,-2.16 1.16,4.61 1.09,1.83 1.1,2.99 3.12,3.24z"/>
    <path class="fil4" d="M23.64 120.85c0.42,-0.75 1.56,1.3 -0.21,-4.7 -0.64,-2.17 -0.24,-2.95 -2.3,-3.95 -1.05,1.66 1.01,7.3 2.51,8.65z"/>
    <path class="fil23" d="M113.03 85.63c2.84,-0.98 2.03,-0.01 2.06,0.03l0.28 -1.44c0.03,-2.98 0.28,-4.85 -2.35,-6.37l0.01 7.78 0 0z"/>
    <path class="fil24" d="M86.89 150.71l5.69 1.57 -2.29 -4.8c-1.99,0.64 -2.24,1.49 -3.4,3.23z"/>
    <path class="fil25" d="M81.61 149.62c0.98,-3.18 0.45,-4.4 -0.11,-7.58l-1.47 -0.28c0.39,1.83 0.89,3.67 0.75,5.56 -0.2,2.63 -1.02,1.97 -0.33,3.95 1.84,-0.86 0.72,0.51 1.16,-1.65l0 0 0 0z"/>
    <path class="fil26" d="M96.92 88.53c0.12,2.28 0.27,4.85 2.37,5.67l-1.13 -7.02 -1.61 -1.44 0.37 2.79 0 0 0 0z"/>
    <path class="fil27" d="M107.68 87.24l2.02 -0.98 -0.32 -1.37c-2.39,0.3 -3.91,0.02 -5.48,1.01 1.17,1.87 1.12,1.28 3.78,1.34l0 0z"/>
    <path class="fil28" d="M90.56 77.24c0.16,-0.11 0.39,-0.5 0.47,-0.33 0.07,0.14 0.35,-0.25 0.45,-0.27 1.64,-0.51 -0.81,-0.4 1.16,-0.14 -1.43,-3.44 -2.25,-1.64 -3.28,-4.33 -1.11,-0.16 -0.89,-0.44 -0.84,0.6 0.87,1.94 1.94,3.11 2.04,4.47l0 0 0 0z"/>
    <path class="fil23" d="M114.77 96.47c0.22,1.56 -0.98,1.46 0.77,1.09 1.68,-1.78 2.26,-1.64 1.64,-4.3 -2.47,1.27 -1.82,0.68 -2.41,3.21l0 0z"/>
    <path class="fil25" d="M99.48 153.81l-0.33 1.6 1.4 -0.57c0.81,-1.96 1.65,-3.3 0.71,-4.71 -1.57,1.23 -1.39,1.73 -1.78,3.68l0 0z"/>
    <path class="fil25" d="M77.39 153.26l1.57 -0.03c-0.7,-3.19 -0.73,-3.14 -3.74,-3.46l2.17 3.49 0 0z"/>
    <path class="fil29" d="M199.98 163.58c2.41,-1.22 0.8,-0.61 1.39,0.22 2.26,-1.29 2.51,-0.96 2.34,-3.19 -2.47,0.25 -2.69,1.37 -3.73,2.97l0 0z"/>
    <path class="fil11" d="M75.37 167.61c-0.47,-2.02 -0.74,-2.7 -2.48,-3.7 -0.47,3.16 -0.21,3.39 2.48,3.7z"/>
    <path class="fil27" d="M89.16 187.2c1,1.77 -0.05,3.13 2.96,2.51 -0.49,-2.66 -0.62,-2.8 -2.96,-2.51z"/>
    <path class="fil30" d="M81.61 149.62c1.1,0 0.69,-0.23 0.8,1.07l0.67 -1.92 1.1 0.27c-0.9,-0.83 1.08,-0.84 -1.4,-0.66 -0.07,-2.73 0.14,-4.26 -1.28,-6.34 0.56,3.18 1.09,4.4 0.11,7.58z"/>
    <polygon class="fil18" points="82.41,150.69 82.27,152.77 83.71,152.57 84.18,149.04 83.08,148.77 "/>
    <polygon class="fil31" points="90.88,88.28 91.76,86.93 87.15,87.24 87.43,88.6 "/>
    <path class="fil32" d="M97.42 154.33c0.82,-2.7 0.11,-2.6 -1.59,-3.28 0.12,2.72 -0.34,2.42 1.59,3.28z"/>
    <path class="fil33" d="M80.9 159.72c1.99,0.79 3.83,1.09 6.08,0.54l0.87 -2.6 -2.18 2.32 -4.77 -0.26 0 0 0 0z"/>
    <path class="fil34" d="M91.58 175.13c1.68,1.18 2.44,1.44 4.37,0.21 -0.55,-1.84 0.8,-1.54 -2.2,-1.67l1.98 1.56 -4.15 -0.1 0 0z"/>
    <path class="fil33" d="M83.38 71.59c0.15,0.12 0.37,0.1 0.43,0.35 0.05,0.24 0.31,0.28 0.39,0.37 0.14,0.15 0.86,1.13 0.91,1.2l-0.46 -3.56c-0.03,-0.1 -0.17,-0.26 -0.25,-0.38l-1.02 2.02 0 0z"/>
    <path class="fil35" d="M96.92 88.53l-0.37 -2.79 1.61 1.44c-0.65,-2.64 0.17,-1.15 -1.33,-1.95 -1.25,1.86 -1.32,1.37 0.09,3.3l0 0 0 0z"/>
    <path class="fil36" d="M103.51 74.36l1.13 -0.31 -1.53 -2.31c-0.54,1.28 -0.63,1 0.4,2.62l0 0z"/>
    <path class="fil33" d="M46.45 171.89l0.97 -2.44 -1.67 0.56c-0.31,3.67 -0.12,0.53 0.7,1.88z"/>
    <path class="fil37" d="M150.6 119.96c-1.15,-1.43 -0.45,0.01 -1.43,-2.42l0 2.98c3.07,1.05 0.34,0.26 1.43,-0.56z"/>
    <polygon class="fil38" points="165.98,163.47 168.1,162.28 167.76,164.38 168.7,162.62 167.25,161.82 "/>
    <path class="fil39" d="M60.19 112.35c0.8,2.16 -0.56,0.77 1.32,1.81 0.35,-0.59 1.52,0.32 0.05,-2.35l0.44 2.15 -1.81 -1.61 0 0z"/>
    <path class="fil40" d="M166.37 129.51c0,1.37 -0.36,1.11 0.91,0.98l0.77 -1.65c-0.95,0.58 -0.53,0.2 -1.68,0.67z"/>
    <path class="fil39" d="M88.53 72.77c-0.06,-1.04 -0.28,-0.76 0.83,-0.6 -1.09,-0.95 1.58,-1.04 -1.73,-0.68 0.31,2.59 -0.12,0.29 0.9,1.28l0 0z"/>
    <path class="fil41" d="M51.18 105.29l-1.29 -0.8 0.38 1.72c2.3,0.54 0.16,0.22 0.91,-0.92l0 0 0 0z"/>
    <polygon class="fil42" points="54.14,162.54 54.97,161.11 53.72,160.06 "/>
    <path class="fil42" d="M52.42 166.82l1.41 -3.37c-1.56,1.12 -1.17,1.31 -1.41,3.37z"/>
    <path class="fil42" d="M27.56 127.76l0.56 -1.09c-0.58,-1.05 0.94,-0.64 -1.14,-0.93l0.58 2.02z"/>
    <path class="fil39" d="M75.79 66.42l0.7 -1.29c-2.51,-0.65 -0.39,-0.31 -1.3,0.61l0.6 0.68z"/>
    <polygon class="fil43" points="56.81,117.89 55.5,118.77 54.85,117.21 55.19,119.73 "/>
    <path class="fil39" d="M186.93 152.7c0.01,-1.11 -0.27,-0.84 0.83,-0.79 -0.9,-0.81 1.34,-0.98 -1.5,-0.54l0.67 1.33 0 0 0 0z"/>
    <polygon class="fil40" points="30.82,113.86 29.1,113.36 30.32,114.78 "/>
    <polygon class="fil36" points="22.88,139.92 23.51,140.78 24.41,139.45 "/>
    <path class="fil33" d="M52.34 199.23l-1.27 -2.78c0.49,2.61 -0.09,1.25 1.27,2.78z"/>
    <polygon class="fil44" points="98.82,154.99 100.38,155.68 100.55,154.84 99.15,155.41 99.48,153.81 "/>
    <path class="fil43" d="M12.77 131.63c-0.14,-0.13 -0.31,-0.52 -0.39,-0.38 -0.09,0.13 -0.31,-0.29 -0.42,-0.34 -1.19,-0.57 -0.13,-0.22 -1.71,-0.62l2.52 1.34 0 0z"/>
    <path class="fil42" d="M168.41 121.64c-0.04,-0.22 -0.09,-0.75 -0.14,-0.64 -0.04,0.1 -0.1,-0.48 -0.17,-0.6 -0.49,-0.99 -0.56,-0.99 -0.92,-1.45l1.23 2.69z"/>
    <path class="fil45" d="M203.65 144.26c-2.43,1.1 -0.67,0.64 -1.27,-0.7 -0.06,0.18 -0.24,0.25 -0.22,0.52l1.49 0.18z"/>
   </g>
  </g>
 </g>
</svg>
