<?xml version="1.0" encoding="UTF-8"?>
<!DOCTYPE svg PUBLIC "-//W3C//DTD SVG 1.1//EN" "http://www.w3.org/Graphics/SVG/1.1/DTD/svg11.dtd">
<!-- Creator: CorelDRAW 2020 (64-Bit) -->
<svg xmlns="http://www.w3.org/2000/svg" xml:space="preserve" width="220px" height="270px" version="1.1" style="shape-rendering:geometricPrecision; text-rendering:geometricPrecision; image-rendering:optimizeQuality; fill-rule:evenodd; clip-rule:evenodd"
viewBox="0 0 220 270"
 xmlns:xlink="http://www.w3.org/1999/xlink"
 xmlns:xodm="http://www.corel.com/coreldraw/odm/2003">
 <defs>
  <style type="text/css">
   <![CDATA[
    .str0 {stroke:#373435;stroke-width:4;stroke-miterlimit:22.9256}
    .str2 {stroke:#373435;stroke-width:2;stroke-miterlimit:22.9256}
    .str1 {stroke:#373435;stroke-width:3;stroke-miterlimit:22.9256}
    .fil2 {fill:none}
    .fil1 {fill:#D74878}
    .fil0 {fill:#7C5534}
    .fil4 {fill:#C68988}
    .fil3 {fill:#F2C1B0}
   ]]>
  </style>
 </defs>
 <g id="Capa_x0020_2">
  <metadata id="CorelCorpID_0Corel-Layer"/>
  <g id="_2261200515920">
   <g>
    <path class="fil0 str0" d="M30.65 127.08c1.94,23.85 -15.9,17.03 1.86,34.9 2.04,2.06 -17.25,14.09 -17.25,38.35 0,35.28 27.33,31.67 61.68,31.67 53.39,0 49.27,22.45 106.47,-4l0 0c9.94,-21.5 41.2,-9.63 29.11,-32.93 -6.46,-12.46 -11.9,-0.98 -13.11,-31.74 -0.55,-14.01 -24.28,-16.11 -18.9,-60 4.86,-39.71 -20.49,-22.74 -18.99,-61.01 0.24,-6.08 -22.75,-24.96 -45.29,-17.17 -13.71,4.74 -4.16,-39.96 -39.63,1.83 -11.9,14.03 -38.2,-17.68 -35.47,46.34 0.23,5.54 -32.06,20.75 -13.19,50.26 0.7,1.1 -0.94,2.87 2.71,3.5z"/>
    <g>
     <path class="fil1" d="M125.2 166.5c-0.49,-4.39 -2.9,-21.43 -2.98,-21.31 -10.43,16.28 -36.9,-0.83 -38.86,-0.83 -2.44,7.08 0.41,16.79 4.31,22.5 -5.55,-1.15 2.26,-11.29 -12.82,-8.33 -19.29,3.78 -28.58,5.3 -34.42,25.53 -1.84,6.35 7.3,22.99 1.1,37.24 -10.86,24.91 119.73,54.61 144.72,16.97 4.4,-6.62 -1.41,-17.26 -4.74,-28.07 -3.86,-12.5 0.83,-11.96 -8.33,-25.02 -6.7,-9.57 -6.42,-16.21 -21.33,-21.67 -5.68,-2.08 -22.2,-1.18 -27.27,-5.19 -0.45,-0.36 1.23,7.93 0.62,8.18zm-16.91 1c3.09,6.18 4.72,7.85 10.39,11.57l0.55 0.43 -10.94 -12zm6.96 -3c7.4,4.16 10.58,10.8 14.32,13.09 0.83,0.51 0.65,-0.09 1.6,0.91l-15.92 -14zm-22.88 -2c0.35,2.14 9.42,12.11 11.94,14l-11.94 -14zm-2 -7c1.28,-0.37 2.3,1.92 5.86,1.59 4.17,-0.38 7.38,0.77 11.16,-0.08 1.72,-0.39 10.45,0.39 10.85,-1.51l-27.87 0z"/>
     <path id="1" class="fil2 str1" d="M125.2 166.5c-0.49,-4.39 -2.9,-21.43 -2.98,-21.31 -10.43,16.28 -36.9,-0.83 -38.86,-0.83 -2.44,7.08 0.41,16.79 4.31,22.5 -5.55,-1.15 2.26,-11.29 -12.82,-8.33 -19.29,3.78 -28.58,5.3 -34.42,25.53 -1.84,6.35 7.3,22.99 1.1,37.24 -10.86,24.91 119.73,54.61 144.72,16.97 4.4,-6.62 -1.41,-17.26 -4.74,-28.07 -3.86,-12.5 0.83,-11.96 -8.33,-25.02 -6.7,-9.57 -6.42,-16.21 -21.33,-21.67 -5.68,-2.08 -22.2,-1.18 -27.27,-5.19 -0.45,-0.36 1.23,7.93 0.62,8.18zm-16.91 1c3.09,6.18 4.72,7.85 10.39,11.57l0.55 0.43m-3.98 -15c7.4,4.16 10.58,10.8 14.32,13.09 0.83,0.51 0.65,-0.09 1.6,0.91m-38.8 -16c0.35,2.14 9.42,12.11 11.94,14m-13.94 -21c1.28,-0.37 2.3,1.92 5.86,1.59 4.17,-0.38 7.38,0.77 11.16,-0.08 1.72,-0.39 10.45,0.39 10.85,-1.51"/>
    </g>
   </g>
   <g id="_2261200517504">
    <path class="fil3 str2" d="M93.87 156.89c-0.13,-5.88 -0.4,-11.33 -0.2,-17.39 0.12,-0.11 0.22,-0.17 0.22,-0.3 -0.03,-0.9 2.72,-0.69 3.3,-0.53 3.33,0.94 12.47,-2.01 15.27,-0.77 0.66,5.51 -0.53,15.11 0.12,18.59l0 0c-3.77,-1.07 -12.07,0.91 -16.73,0.51 -0.01,0 -1.61,-0.11 -1.98,-0.11z"/>
    <path class="fil3 str1" d="M136.88 114.9c0.26,-0.08 -2.85,15.02 -19.69,20.59 -8.43,2.79 -16.54,3.58 -25.67,2.74 -7.03,-0.64 -13.01,-5.57 -17.97,-10.53 -2.83,-2.83 -6.18,-6.7 -7.97,-10.33 -0.05,-0.1 -20.51,2.61 -14.43,-16.98 0.88,-2.81 7.58,-10.26 11.25,-10.26 0,-11.98 4.33,-21.34 17.08,-23.25 4.45,-0.66 1.93,0.6 4.22,-1.33 -0.9,-7.55 2.75,-10.45 9.73,-12.29 4.85,-1.28 1.35,0.97 6.64,-5.19 8.26,-9.62 27.59,-4.67 28.64,8.38 0.21,2.66 0.94,3.18 0.94,8.07 0,4.42 4.18,17.37 3.93,23.52 -0.27,7.03 1.05,3.75 2.99,2.48 1.78,-1.18 9.78,-0.55 11.63,4.74 2.9,8.24 -5.38,13.06 -8.21,18.5 -0.12,0.25 -2.67,1.01 -3.11,1.14z"/>
   </g>
   <g id="face">
    <path class="fil2 str1" d="M91.11 83.39c-6.19,-1.45 -7.29,-5.54 -15.92,0"/>
    <path class="fil2 str1" d="M110.02 85.4c1.98,-3.02 10.16,-7.54 14.83,-3.54 0.35,0.3 0.64,0.36 1.09,0.54"/>
    <path class="fil2 str1" d="M100.07 97.4c0.89,0.82 0.63,9.9 0,10.99"/>
    <path class="fil2 str1" d="M93.1 123.39c3.97,2.22 13.66,1.96 13.93,0"/>
    <path class="fil2 str1" d="M83.15 104.39c0.68,-1.18 0.09,-3.73 0.09,-5.53 4.63,0 0,13.76 0,0.55 3.57,0 0.69,9.73 1.1,-0.55 0.07,-1.74 -4.91,-6.68 -1.03,-0.07 0.56,0.95 3.48,-3 5.81,-3.4"/>
    <path class="fil2 str1" d="M116.31 103.65c0.68,-1.18 0.09,-3.74 0.09,-5.54 4.63,0 0,13.77 0,0.55 3.57,0 0.69,9.74 1.1,-0.55 0.07,-1.74 -4.91,-6.67 -1.03,-0.07 0.56,0.95 3.48,-3 5.81,-3.39"/>
    <ellipse class="fil4" cx="127.34" cy="114.12" rx="8.87" ry="6.77"/>
    <ellipse class="fil4" cx="74.87" cy="115.22" rx="8.87" ry="6.77"/>
   </g>
  </g>
 </g>
</svg>
