<?xml version="1.0" encoding="UTF-8"?>
<!DOCTYPE svg PUBLIC "-//W3C//DTD SVG 1.1//EN" "http://www.w3.org/Graphics/SVG/1.1/DTD/svg11.dtd">
<!-- Creator: CorelDRAW 2020 (64-Bit) -->
<svg xmlns="http://www.w3.org/2000/svg" xml:space="preserve" width="348px" height="378px" version="1.1" style="shape-rendering:geometricPrecision; text-rendering:geometricPrecision; image-rendering:optimizeQuality; fill-rule:evenodd; clip-rule:evenodd"
viewBox="0 0 348 378.03"
 xmlns:xlink="http://www.w3.org/1999/xlink"
 xmlns:xodm="http://www.corel.com/coreldraw/odm/2003">
 <defs>
  <style type="text/css">
   <![CDATA[
    .str1 {stroke:#190600;stroke-width:2;stroke-miterlimit:22.9256}
    .str0 {stroke:#342322;stroke-width:2.36;stroke-miterlimit:22.9256}
    .fil5 {fill:none}
    .fil3 {fill:#342322}
    .fil11 {fill:#3C1934}
    .fil10 {fill:#783269}
    .fil9 {fill:#A85243}
    .fil2 {fill:#B71D05}
    .fil1 {fill:#CB5128}
    .fil7 {fill:#F1A67E}
    .fil4 {fill:#F2A589}
    .fil8 {fill:#F2A883}
    .fil0 {fill:#F4CBAF}
    .fil6 {fill:#BB1F06;fill-opacity:0.501961}
   ]]>
  </style>
 </defs>
 <g id="Capa_x0020_1">
  <metadata id="CorelCorpID_0Corel-Layer"/>
  <g id="_1667296062704">
   <g id="cara">
    <path class="fil0" d="M182.8 223.25c0.15,3.16 0.25,12.07 0.67,20.02 14.35,1.89 10.8,1.22 14.35,1.89 10.29,0.23 8,1 7.96,-19.03l-1.3 -16.58c10.32,2.23 32.61,4.1 40.07,-6 2.61,-3.55 2.02,-8.33 3.06,-12.69 -0.94,-2.87 -4.54,-4.72 -5.1,-8.57l13.95 -11.21 0.23 -8.61c1.14,-2.75 24.68,-3.92 8.43,-18.73 -2.07,-1.88 -5.72,-7.78 -7.37,-11.79 -2.2,-5.34 -1.78,-10.51 -1.8,-16.38 -0.06,-20.65 -6.21,-45.52 -16.49,-59.08 -3.22,6.45 -10.14,6.2 -15.19,18.4 -9.52,23.02 -23.13,15.73 -26.68,24.89 -4.06,10.48 -8.6,23.85 -27.06,23.54 -10.66,-16.79 -22.84,-0.49 -17.1,14.52 1.99,5.21 6.69,11.97 12.72,11.06 6.52,-0.97 3.1,-1.28 8.19,2.39 8.52,6.14 13.1,7.83 17.67,18.66 3.74,8.86 4.14,9 4.91,19.6 0.74,10.03 -5.35,34.89 -14.12,33.7z"/>
    <path id="boca" class="fil1" d="M248.19 191.53c-1.06,-1.1 -1.95,-1.73 -3.35,-3.27 -0.58,-0.64 -3.69,-4.18 -2.89,-4.91 4.51,-4.08 7.4,-9.01 12.9,-12.16 0.87,-0.5 1.08,-0.06 1.61,0.09 0.73,0.19 1.31,1.01 2.19,2.44 1.15,1.88 -0.29,5.22 -1.36,6.77 -1.75,2.54 -5.25,2.13 -5.23,2.14 5,2.03 4.91,8.93 0.76,9.49 -1.25,0.17 -2.81,-0.35 -4.63,-0.59z"/>
    <path class="fil2" d="M252.96 181.96c-1.51,-0.24 -11.03,-0.19 -9.61,-0.19 10.05,0 12.19,-6.29 15.31,-6.29 0,3.43 -0.42,6.12 -4.76,6.65 -0.29,0.04 -2.1,-0.35 -0.94,-0.17z"/>
    <path class="fil3" d="M221.82 122.15l8 -3 16.75 -3.19c1.89,-0.36 2.04,-2.58 2.04,-4.51l0 0c0,-1.93 -2.95,-1.82 -4.79,-1.3l-7 2 -18 8c-1.57,0.7 -4.17,3.56 -3.49,5.38 0.49,1.28 1.94,-0.3 2.49,-0.38 1,-0.15 2.27,-2.35 4,-3z"/>
    <path class="fil4" d="M232.61 124.15c5.27,-0.32 10.04,2.31 12.69,6.47 -2.1,4.77 -6.49,8.18 -11.76,8.51 -5.27,0.33 -10.05,-2.51 -12.72,-6.98 2.11,-4.46 6.51,-7.67 11.79,-8z"/>
    <g>
     <path class="fil5 str0" d="M244.82 131.15c-0.57,0.02 -2.07,1.15 -2.22,1.87 -0.55,0.13 -2.87,2.7 -3.95,2.78 -1.43,0.11 -2.8,3.5 -11.19,2.79 -1.7,-0.14 -5.19,-2.71 -6.64,-3.44 -0.13,0.43 -3.15,2.72 -4.06,3.04"/>
     <path class="fil5 str0" d="M225.82 138.15c-1.27,-0.56 -4.76,3.4 -5,3"/>
     <path class="fil5 str0" d="M225.82 143.15c0.09,0.02 5.25,-3.94 5.29,-4.51"/>
    </g>
    <path class="fil6" d="M208.92 149.21c-21.27,7.6 -7.88,39.34 12.53,31.85 9.04,-3.32 17.64,-23.04 2.09,-30.69 -4.5,-2.22 -9.65,-2.93 -14.62,-1.16z"/>
    <g>
     <path class="fil7" d="M170.57 122.23c1.16,4.8 2.88,4.85 8.21,3.01 1.08,-0.38 6.55,-5.01 12.24,-6.56 10.33,-2.8 5.32,-15.17 22.08,-20.95 0.47,-2.27 21.16,-29.93 27.54,-31.01 8.97,-1.53 3.23,-16.67 -7.4,-7.11 -8.47,7.62 -13.29,30.67 -28.67,32.01 -5.88,0.51 -8.25,11.27 -13.03,17.75 -3.24,4.39 -20.24,15.91 -20.97,12.86z"/>
     <path class="fil7" d="M170.75 148.34c0.14,0.01 2.1,-4.39 -1.42,-3.96 -14.94,1.84 -18.6,-5.67 -13.85,1.91 1.81,2.9 12.93,1.85 15.27,2.05z"/>
     <path class="fil7" d="M256.69 162.47c-8.18,1.5 -8.74,-2.85 -1.37,-2.56 0.52,0.02 29.28,-15.56 9.01,1.23 -0.24,0.2 -7.52,1.31 -7.64,1.33z"/>
     <path class="fil7" d="M230.82 211.92c-1.63,-1.14 -36.73,-15.99 -36.91,-15.98 0,9.37 2.73,28.15 -19.1,28.15 7.56,0 28.91,0.71 35.02,2.13 1.13,-11.16 -14.92,-14.93 10.82,-14.93 1.66,0 9.03,-0.17 10.17,0.63z"/>
     <path class="fil8" d="M247.61 190.86c-2.17,-0.11 -0.27,11.47 -1.69,4.51 -2.11,-10.35 1.39,-4.52 1.69,-4.51z"/>
    </g>
    <circle class="fil9" cx="213.82" cy="143.15" r="1"/>
   </g>
   <g id="remera">
    <g>
     <path class="fil10" d="M210.82 227.16c-12.9,-2.52 -7.75,-1.05 -23.16,-4.58 -0.42,-0.1 -41.87,-3.78 -44.85,-1.42 1.12,4.25 -0.76,19.07 2,24 12.07,-1.44 50.39,2 65.81,2 0.86,0 1.73,0 2.6,0l-2.4 -20zm-7.16 19.84l5.16 40.17 10 35 13.89 53 -121.71 0 5.81 -34 11 -33 22.1 -63.32 53.75 2.15z"/>
    </g>
    <g>
     <path class="fil11" d="M147.82 248.02l40 -1.86c-22.14,1.72 -38.47,46.46 -43.03,64.23 -2.97,11.54 -15.63,40.16 -14.73,51.54 0.06,0.75 -2.6,8.51 -2.6,13.24 -14.77,-0.5 -10.99,-0.5 -15.15,-0.5 0,-19.85 2.27,-24.64 6.81,-42.81 3.48,-13.96 14.8,-35.29 20.39,-52.11 3.71,-11.15 5.28,-23.94 8.31,-31.73zm20 -0.93c0.44,-7.78 -9.61,-13.97 -9.18,-25.06 0.01,-0.02 -0.49,-2.02 -0.83,-1.87 -0.24,-0.06 -12.72,-1.59 -13.02,-1.59 -3.01,5.24 -6.35,27.39 0.86,29.88l22.17 -1.36z"/>
    </g>
   </g>
   <g id="pelo">
    <path class="fil3" d="M154.41 10.9c-1.91,-0.38 -3.59,-0.13 -5.78,-0.11 -3.35,0.02 -2.52,-0.07 -5.32,0.85 -3.23,1.07 -6.13,2.1 -9.01,3.23l-1.52 0.78c-30.14,17.91 -2.15,-2.31 -26.28,22.07 -1.21,2.97 -1.52,6.62 -2.84,9.15 -5.55,2.06 -10.51,3.64 -15.12,7.26 -3.56,2.81 -6.04,7.79 -8.71,13.12 -5.29,10.54 -5.8,23.91 -6.42,37.15 -8.11,1.86 -23.18,9.18 -30.51,13.77l-8.47 5.72 -3.75 3.25 -0.48 1.28 -0.91 1.29c-0.07,0.12 -0.18,0.31 -0.26,0.44l-0.89 1.77c-2.05,4.15 -2.45,3.16 -3.93,5.92 -0.31,0.57 -0.98,2.05 -1.29,2.74l-1.14 2.94c-0.04,0.16 -0.24,0.52 -0.36,1.53 -0.01,0.14 -0.01,0.35 -0.02,0.48 -0.1,2.03 2.12,1.17 -1.07,1.54 0.24,6.53 -1.19,7.92 -0.14,15.14l0.37 2.24c1.43,1.45 1.29,1.66 2.45,2.81 0.78,0.77 0.32,0.23 1.02,0.96 7.67,7.98 5.75,8 -2.96,13.24 -3.83,2.3 -0.67,-0.03 -2.66,2.58 -1.65,2.16 -3.14,2.81 -4.1,5.94 -1.07,3.49 -0.65,6.14 -0.41,9.65 2.14,3.3 3.14,6.87 5.97,9.66 2.5,2.46 6.74,5.17 11.45,5.13 7.85,1.96 12.4,-1.51 19.01,-2.53l0.95 -1.72c1.99,6.32 1.32,11.75 12.51,16.02 5.72,2.19 19.9,1.19 23.91,-1.96 0,0 8.75,13.51 19.89,1.07 1.35,-3.15 -0.83,-1.73 1.21,-2.74 2.62,3.52 4.57,10.51 14.95,6.83 4.2,-1.2 7.1,-0.69 10.57,-3.27 6.42,-4.77 -1.04,-1.77 9.85,-5.25 2.43,1.19 5.06,1.72 7.68,2.52l7.7 2.91c3.84,0.72 7.8,0.03 11.71,-0.28 4.4,-0.35 7.28,-1.57 11.54,-2.77 8.77,1.19 14.86,-23.67 14.12,-33.7 -0.77,-10.6 -1.17,-10.74 -4.91,-19.6 -4.57,-10.83 -9.15,-12.52 -17.67,-18.66 -5.09,-3.67 -1.67,-3.36 -8.19,-2.39 -6.03,0.91 -10.73,-5.85 -12.72,-11.06 -5.74,-15.01 6.44,-31.31 17.1,-14.52 18.46,0.31 23,-13.06 27.06,-23.54 3.55,-9.16 17.16,-1.87 26.68,-24.89 5.05,-12.2 11.97,-11.95 15.19,-18.4 10.28,13.56 16.43,38.43 16.49,59.08 0.02,5.87 -0.4,11.04 1.8,16.38 1.65,4.01 5.3,9.91 7.37,11.79 16.25,14.81 -7.29,15.98 -8.43,18.73l-0.26 9.77c1.53,1.99 2.3,2.69 1.64,5.92 -0.63,3.11 -2.11,3.09 -5.11,3.8 1.08,2.79 0.53,0.75 1.63,2.76 1.94,3.55 -0.27,4.12 -1.8,6.64 -0.43,0.82 -0.68,-0.85 -5.18,-0.5 -1.04,4.36 -0.45,9.14 -3.06,12.69 -7.46,10.1 -29.75,8.23 -40.07,6l1.3 16.58c5.01,1.34 2.38,0.2 4.56,4.47 4.76,4.48 14.42,1.47 18.47,-1.83 5.72,-4.65 8.52,-8.94 17.65,-3 7.41,4.83 23.77,9.32 29.08,0.86 2.53,-4.02 3.62,-4.46 5.66,-7.34 3.65,1.82 4.77,6.71 8.45,8.93 3.33,2.02 10.41,2.03 13.56,0l1.53 -0.82c5.61,-2.36 13.58,1.88 18.29,-4.15l4.5 -5.05c0.58,-0.47 0.03,0.52 1.15,-1.21 1.04,-1.6 0.39,-0.19 0.93,-2.34 0.43,-1.68 0.57,-3.08 1.03,-4.92 1.91,-7.47 1.35,-13.28 -5.58,-17.6 -2.74,-1.71 -6.61,-2.4 -7.9,-4.66 -5.27,-9.23 10.63,-20.48 -14.9,-33.98 -16.92,-8.94 -8.95,-9.17 -9.58,-37.94 -0.12,-5.56 -3.03,-14.82 -7.1,-17.99 -5.34,-4.15 -11.12,-3.87 -17.15,-8.04 -2.01,-1.61 -2.6,-2.49 -4.08,-4.58l-0.39 -1.45c-2.23,-0.89 -1.05,-2.42 -1.23,-5.34 -0.12,-1.95 -0.64,-4.57 -0.99,-6.28 -1.01,-4.98 1.29,-1.87 -1.56,-5.34 -6.17,-8.18 0,0 -6.17,-8.18 -1.58,-4.36 -10.37,-4.54 -12.84,-8.84l-0.44 -0.89c-0.1,-0.17 -0.4,-0.67 -0.49,-0.85 -1.3,-2.41 -0.62,-0.33 -1.25,-3.43 -1.48,-7.3 -4.8,-11.13 -10.05,-15.02 -8.57,-6.35 -14.55,-13.07 -25.74,-17.83 -5.35,-2.27 -8.79,-4.55 -16.28,-3.9 -7.92,0.68 -13.13,4.3 -15.4,4.74 -4.07,0.79 -11.97,-1.56 -17.11,-1.43z"/>
    <g id="_1667296062272">
     <ellipse class="fil3" cx="126.71" cy="229.66" rx="35.91" ry="64.51"/>
     <path class="fil3" d="M174.81 157.15c15.47,0 28.01,28.89 28.01,64.51 0,35.63 -12.54,64.51 -28.01,64.51 -15.46,0 -28,-28.88 -28,-64.51 0,-35.62 12.54,-64.51 28,-64.51zm-117.77 6.01c29.41,0 53.25,28.88 53.25,64.5 0,35.63 -23.84,64.51 -53.25,64.51 -29.4,0 -53.24,-28.88 -53.24,-64.51 0,-35.62 23.84,-64.5 53.24,-64.5z"/>
     <ellipse class="fil3" cx="304.93" cy="248.16" rx="32.1" ry="45"/>
     <ellipse class="fil3" cx="259.82" cy="254.25" rx="28" ry="45.92"/>
     <path class="fil3" d="M244.82 291.17c-0.41,-15.17 -7.64,-33.14 -5.85,-59.64 1.65,-24.41 -2.46,-2.85 -15.29,-2.41 -17.86,0.62 -12.86,-1.96 -10.68,16.61 -1.08,1.43 -9.34,1.27 -9.34,1.27 0.81,20.02 3.38,16.25 4.17,32.5 6.69,2.04 17.55,23.29 35.06,12.04 0.85,-0.55 0.77,-0.13 1.93,-0.37z"/>
    </g>
    <path class="fil5 str1" d="M220.65 211.29c-19.7,45.01 25.51,32.35 -0.5,68.88 -0.74,1.03 0.66,4.62 -1.15,8.53m-56.57 -172.33c2.96,-24.23 -21.67,-43.2 -5.38,-57.02 7.68,-6.53 33.8,-5.63 21.41,-27.42 -12.07,-21.25 17.65,-16.64 20.36,-19.79m-44.01 107.01c6.72,-8.17 -11.98,-7.25 -9.07,-30.94 0.55,-4.48 -4.25,-6.06 -7.93,-6.06 -27.3,-3.35 -18.68,-32.83 -29.14,-34.99 -0.37,-1.8 -0.44,-0.85 -0.89,-2.15m146.86 53.41c43.09,-3.14 1.43,51.52 30.5,64.7 37.32,16.92 -3.66,35.84 26.27,56.91 18.39,12.95 8.96,59.03 12.8,64.12m-59.88 -123.01c5.05,22.85 14.91,32.27 2.81,60.47 -6.19,14.43 5.65,24.42 17.5,28.54 25.99,9.05 14.36,30.74 20.29,43.02m-64.61 -85.87c5.78,27.02 -22.29,21.37 14.57,50.89 8.8,7.05 9.7,28.22 -3.66,34.86 -0.81,0.4 -2.14,2.94 -2.43,3.42m-96.62 -163.49c-23.33,-0.46 -34.64,-1.61 -31.58,30.07 0.17,1.78 11.31,16.24 14.66,26.79 11.32,35.64 7.12,23.89 -12.12,54.51 -7.62,12.11 -6.36,47.12 -6.44,47.27m38.77 -23.32c0.64,-35.76 54.6,-37.95 9.35,-94.37 -4.19,-5.23 -7.27,-20.23 -2.95,-25.66m-99.22 143.54c8.68,-19.55 28.72,-17.53 32.12,-68.36 2.24,-33.55 -2.15,-40.67 -2.15,-70.25 0,-28.04 47.42,-48.35 60.19,-35.05m-144.24 136.23c72.37,-28.37 41.76,-50.51 57.2,-101.98 4.85,-16.16 -6.34,-7.37 14.6,-29.88 16.52,-17.77 18.58,-16.87 46.36,-16.87 2.96,0 19.54,-0.47 21.6,-0.63"/>
   </g>
   <path class="fil5 str1" d="M182.18 121.15c-0.91,-10.67 11.28,-10.76 7.39,-29.84 -9.94,-48.8 36.52,-55.42 44.53,-46.04 0.6,0.71 4.54,0.8 5.22,0.9 -9.25,13.37 12.5,5.84 -11.29,20.3 -7.61,4.63 -1.16,18.59 -21.65,24.02 -2.94,0.78 -20.89,29.52 -24.2,30.66z"/>
  </g>
 </g>
</svg>
